<?xml version="1.0" standalone="no"?>
<!DOCTYPE svg PUBLIC "-//W3C//DTD SVG 1.1//EN" "http://www.w3.org/Graphics/SVG/1.1/DTD/svg11.dtd" >
<svg xmlns="http://www.w3.org/2000/svg">
<metadata></metadata>
<defs>
<font id="micro_technicregular" horiz-adv-x="1591" >
<font-face units-per-em="2048" ascent="1638" descent="-410" />
<missing-glyph horiz-adv-x="616" />
<glyph horiz-adv-x="0" />
<glyph horiz-adv-x="682" />
<glyph unicode=" "  horiz-adv-x="616" />
<glyph unicode="&#x09;" horiz-adv-x="616" />
<glyph unicode="&#xa0;" horiz-adv-x="616" />
<glyph unicode="!" horiz-adv-x="483" d="M104 0v279h273v-279h-273zM141 463v1233h205v-1233h-205z" />
<glyph unicode="&#x22;" horiz-adv-x="731" d="M104 1202v494h193v-494h-193zM440 1202v494h189v-494h-189z" />
<glyph unicode="#" horiz-adv-x="1460" d="M104 414l27 237h217l37 379h-213l23 232h219l43 436h231l-49 -436h229l47 436h232l-45 -436h256l-23 -232h-262l-37 -379h258l-24 -237h-260l-43 -414h-230l41 414h-231l-37 -414h-234l46 414h-218zM569 651h232l43 379h-232z" />
<glyph unicode="$" horiz-adv-x="1611" d="M104 418v135h209v-141q0 -68 13.5 -107.5t50.5 -64.5q28 -22 94 -34.5t107 -12.5h129v571l-109 2q-121 2 -209 27t-158 90q-96 87 -96 288v105q0 121 36 202.5t116 131.5q112 69 340 69h78v82h157v-82h156q248 0 346 -94q49 -47 76.5 -105t27.5 -112v-194h-208v151 q0 68 -48 113q-30 30 -68 40.5t-93 10.5h-164v-528h178q77 0 132.5 -15.5t127.5 -56.5q87 -50 133.5 -144.5t46.5 -214.5v-124q0 -153 -90 -261q-113 -135 -432 -135h-119v-147h-157v147h-125q-2 0 -26.5 -1t-44.5 -0.5t-53 2.5t-63.5 9t-64.5 17.5t-66.5 29.5t-60.5 44 q-99 88 -99 307zM330 1171q0 -114 53 -165q27 -26 85 -37.5t102 -9.5l44 2h93v530h-78q-67 -2 -94.5 -3t-71.5 -10.5t-62 -27.5q-71 -74 -71 -203v-76zM885 193h61q2 0 21.5 -1t38.5 -1t48 1.5t55.5 6.5t53 13t49.5 23t37 35q19 27 32.5 82t12.5 109v37q4 153 -82 221 q-25 21 -69.5 31.5t-78.5 12t-99 1.5h-80v-571z" />
<glyph unicode="%" horiz-adv-x="2381" d="M111 926.5v26.5v22v383q0 40 3 69t14 66t37 66.5t66 50.5q91 52 256 55h58q61 -1 97.5 -5t90 -25t96.5 -60q47 -44 66.5 -116.5t19.5 -119.5v-354q0 -189 -69 -260q-106 -109 -291 -109h-86q-67 0 -148.5 19t-136.5 70q-12 11 -21.5 24t-16.5 25t-13 29t-9.5 28.5 t-6 30.5t-4 28.5t-2 29.5t-0.5 26.5zM279 956q0 -95 32 -127q38 -43 146 -43h106q62 0 111 25q65 36 65 137v350q0 58 -6.5 89.5t-16.5 44.5t-34 34q-6 6 -15 10t-17.5 7t-20 5t-20 3t-21 1.5t-18.5 0.5h-17.5h-13.5h-56h-17h-24.5t-26 -0.5t-28 -2.5t-24 -5t-19.5 -8 q-41 -27 -53 -60.5t-12 -105.5v-355zM1061 0l92 1647h147l-83 -1647h-156zM1466 358v383q0 84 23.5 147.5t97.5 104.5q95 53 258 56h56q45 -1 74 -3.5t68.5 -11t74.5 -27.5t67 -49q47 -44 66.5 -116.5t19.5 -118.5v-354q0 -189 -69 -260q-108 -113 -289 -109h-86 q-64 -2 -148 17.5t-139 70.5q-27 26 -44 60t-22.5 79.5t-6.5 65t-1 65.5zM1634 340q0 -94 33 -127q41 -43 148 -43h104q65 0 111 25q67 38 67 137v350q0 57 -7 89.5t-16.5 44.5t-33.5 32q-7 6 -16 10.5t-17.5 8t-20.5 5.5t-20 3t-21.5 1.5t-19 0.5h-17.5h-14h-55 q-111 0 -137 -17q-41 -27 -54.5 -61.5t-13.5 -104.5v-354z" />
<glyph unicode="&#x26;" horiz-adv-x="1882" d="M110.5 408.5q0.5 31.5 0.5 42.5v94q1 71 4.5 113t15.5 96t40 95.5t73 76.5q39 31 100.5 47t110.5 18q-15 13 -36 29t-36 29.5t-29 31.5q-53 74 -53 203v33q0 95 26.5 164.5t92.5 130.5q48 43 135 65.5t193 24.5h86q156 -2 250 -24.5t157 -96.5q45 -52 64.5 -102 t19.5 -117v-197h-199v181q0 64 -59 120q-57 54 -180 54h-191q-79 0 -123 -39q-61 -56 -61 -164v-37q0 -52 25 -98q19 -37 51 -62l682 -569v217h215v-137q0 -91 -4 -146q0 -20 -2 -41t-4.5 -33t-4.5 -12l318 -254l-117 -165l-268 213q-6 -9 -16.5 -26t-15.5 -24t-15 -19 t-19.5 -20.5t-25.5 -20.5t-37 -26q-116 -73 -496 -65h-41q-356 -7 -491 88q-33 23 -57 50.5t-38.5 57.5t-23.5 56t-12 59.5t-4 53.5t-0.5 51.5zM307 465q0 -85 13.5 -127.5t64.5 -95.5q69 -74 324 -70h112q244 -4 332 51q25 17 39 27.5t30 29.5t25 42l-663 546l-31 2 q-85 0 -168 -67q-33 -29 -54.5 -98.5t-23.5 -147.5v-92z" />
<glyph unicode="'" horiz-adv-x="391" d="M104 1202v494h193v-494h-193z" />
<glyph unicode="(" horiz-adv-x="645" d="M104 436v817q0 275 140 379q35 29 95.5 49t125.5 21h67v-191h-59q-38 0 -61.5 -7.5t-49.5 -33.5q-33 -33 -50 -104t-17 -154v-716q0 -234 65 -279q59 -41 117 -41h58v-192h-66q-66 0 -129.5 22.5t-103.5 54.5q-132 103 -132 375z" />
<glyph unicode=")" horiz-adv-x="643" d="M104 -16v192h58q58 0 117 41q65 45 65 279v716q0 84 -16.5 154.5t-51.5 103.5q-26 26 -49 33.5t-61 7.5h-60v191h70q64 -1 124 -21t97 -49q46 -34 75.5 -82.5t42 -105.5t16.5 -98.5t4 -92.5v-817q0 -274 -132 -375q-38 -32 -102 -54.5t-131 -22.5h-66z" />
<glyph unicode="*" horiz-adv-x="1064" d="M104 1243v90h353l-181 314l82 43l181 -310l178 310l80 -43l-179 -314h343v-90h-345l181 -315l-80 -45l-178 311l-181 -311l-82 45l183 315h-355z" />
<glyph unicode="+" horiz-adv-x="1157" d="M104 385v180h388l-3 385h177v-385h389v-180h-389v-385h-174v385h-388z" />
<glyph unicode="," horiz-adv-x="495" d="M104 -119h17q45 0 63 23q19 19 19 61v35h-78v266h272v-309q0 -48 -18 -93.5t-43 -66.5q-28 -27 -74.5 -42.5t-93.5 -14.5h-64v141z" />
<glyph unicode="-" horiz-adv-x="937" d="M104 618v205h730v-205h-730z" />
<glyph unicode="." horiz-adv-x="477" d="M104 0v276h273v-276h-273z" />
<glyph unicode="/" horiz-adv-x="923" d="M104 0l562 1696h168l-560 -1696h-170z" />
<glyph unicode="0" horiz-adv-x="1519" d="M104 428v729q0 270 97 367q73 73 154 102t194 29h383q123 0 198.5 -16.5t151.5 -75.5q133 -108 133 -349v-796q0 -88 -30.5 -176t-96.5 -142q-72 -59 -155.5 -80.5t-200.5 -21.5h-383q-203 0 -338 121q-55 47 -81 139t-26 170zM307 475q0 -150 60 -215q14 -16 30 -28.5 t28 -21t32.5 -14t30 -8.5t35 -4.5t33 -1.5h38h37.5h266h28.5h29t26.5 0.5t27.5 1.5t24.5 3t25.5 5t22.5 7.5t23 10.5t19.5 14t19.5 18q40 39 55.5 91t15.5 154v689q0 74 -18.5 138t-52.5 95q-50 46 -86.5 56t-161.5 10h-299q-105 0 -144.5 -16t-91.5 -73q-53 -61 -53 -256 v-655z" />
<glyph unicode="1" horiz-adv-x="931" d="M104 1163l435 500h288v-1663h-188v1491l-391 -463z" />
<glyph unicode="2" horiz-adv-x="1452" d="M104 1044v170q0 118 31.5 208t87.5 143q37 34 86 56t118 32t117 13.5t138 6.5h29q3 0 37 -0.5t46.5 -1t49.5 -2t56 -3.5t54.5 -6.5t58 -9.5t53 -13.5t52 -19t44 -24.5t38.5 -30q76 -79 96.5 -167t18.5 -233v-59q2 -143 -25 -233t-119 -156q-58 -40 -105 -56t-122 -26 l-311 -45q-184 -24 -240 -68q-39 -35 -53 -81t-14 -115v-138h1022v-186h-1229v373q0 170 112 286q85 85 314 117l364 58q92 13 146 67q57 55 53 215v49q0 4 1 29t0.5 32.5t-0.5 30.5t-2.5 33.5t-5.5 30.5t-9.5 32t-14.5 28t-20 29t-27 24q-63 47 -276 47h-95 q-211 0 -278 -54q-72 -61 -72 -180v-203h-205z" />
<glyph unicode="3" horiz-adv-x="1466" d="M104 414v159h205v-143v-28v-29.5t1 -25.5t3.5 -27.5t6.5 -23t10 -24.5t14.5 -20.5t20.5 -20.5q25 -20 66 -30t72 -11.5t91 -1.5h235h31h32t28.5 0.5t29.5 1.5t26 3t27.5 5.5t23.5 8t24 10.5q54 31 73 76t19 113v73v26.5v27t-0.5 24.5t-2 25.5t-4 23t-6.5 23.5t-9.5 20.5 t-13 21.5t-18 19t-22.5 19q-62 45 -166 45h-323v194h323q112 0 178 84q35 46 35 154v80q0 111 -55 166q-14 15 -32.5 26t-45.5 18t-44.5 11t-53.5 5.5t-47 2.5t-51.5 0.5t-41.5 -0.5h-63q-63 0 -91 -1t-78 -5.5t-80 -17t-48 -33.5q-25 -28 -37.5 -68t-14 -65t-1.5 -68v-123 h-209v197q0 88 20.5 141t69.5 113q30 36 84.5 59.5t127.5 33.5t135.5 13.5t143.5 3.5h89q135 0 260 -23.5t176 -78.5q61 -65 81.5 -140.5t18.5 -177.5v-98q0 -63 -14 -117.5t-41 -81.5q-48 -51 -78 -65t-89 -23q-8 -1 -13 -2q60 -13 99 -28t75 -47q61 -57 76.5 -118.5 t15.5 -180.5v-99q0 -187 -78 -268q-24 -24 -49 -44t-55 -33.5t-51.5 -23.5t-59 -16t-55 -9.5t-62 -4.5t-58.5 -1.5t-64.5 0.5t-61.5 1h-154q-182 8 -277.5 28t-142.5 70q-51 58 -68.5 132.5t-17.5 187.5z" />
<glyph unicode="4" horiz-adv-x="1599" d="M104 367v282l797 1014h338v-1112h258v-184h-258v-367h-207v367h-928zM283 551h749v977z" />
<glyph unicode="5" horiz-adv-x="1452" d="M104 385v150h211v-113q0 -63 7.5 -102.5t35.5 -69.5q27 -29 87.5 -44t100 -16.5t105.5 -1.5h137q198 0 271 54q26 20 42 54.5t22.5 82t8 82t1.5 86.5v102q0 43 -1 65.5t-7 65t-22 74t-42 53.5q-38 35 -125.5 52.5t-167.5 19.5h-47q-83 -1 -168 -12t-111 -23l-18 -9 t-18 -9.5t-15 -9.5t-14.5 -11t-12 -12.5t-10.5 -15.5l-22 -33h-172v831h1151v-186h-957v-451q-1 0 12 10.5t35 26.5t41 27q102 55 269 55h82q282 0 419 -113q46 -40 75.5 -92.5t40 -112t13 -92.5t2.5 -79v-9v-114q0 -71 -2 -113t-10.5 -108.5t-31 -117t-58.5 -85.5 q-48 -47 -114 -76t-124 -36t-116 -10t-90 1h-160q-9 0 -58 -1t-69.5 0.5t-63 7t-82.5 19.5t-85 37q-95 50 -135 129.5t-40 192.5z" />
<glyph unicode="6" horiz-adv-x="1429" d="M104 446v793q0 86 27.5 180.5t99.5 159.5q34 32 91.5 54.5t122 32.5t114 13.5t96.5 3.5h99q157 0 272.5 -22t179.5 -82q92 -83 92 -328v-75h-196v94v22v21.5t-0.5 18.5t-2 19.5t-4 17.5t-6.5 19t-9.5 17t-13 19.5t-17.5 19.5q-20 21 -46.5 33t-65.5 17t-64.5 6t-76.5 1 h-18h-84q-250 0 -309 -43q-44 -32 -62 -95t-18 -112v-336l3 3l11 11t16.5 16t25.5 21t34 23q52 33 127.5 44t200.5 11h72q278 0 397 -83q84 -59 110.5 -146t24.5 -221v-113q3 -49 1 -102.5t-9 -100.5t-31 -93.5t-65 -82.5q-44 -39 -104 -63t-119.5 -30.5t-126 -9t-123.5 0.5 h-93q-291 -4 -413 78q-140 96 -140 368zM305 469q5 -191 74 -240q70 -51 260 -51h125q61 -1 96 0t82 7.5t81 23.5t58 45q23 26 34.5 64t13 64t1.5 74v15v61q0 4 0.5 36.5t0 42t-2.5 38t-7 43t-13 37.5t-21 41t-30 35q-58 55 -250 55h-135q-231 0 -289 -55q-27 -27 -43 -57 t-23 -69t-9 -66t-3 -78v-66z" />
<glyph unicode="7" horiz-adv-x="1447" d="M104 1468v185h1235v-252l-800 -1401h-228l838 1468h-1045z" />
<glyph unicode="8" horiz-adv-x="1466" d="M104 406v131q0 98 25 165t94 109q23 16 33.5 22t29 12.5t44.5 10.5q-19 7 -42 14.5t-31.5 11t-22 11t-25.5 19.5t-31 34q-24 27 -40.5 93.5t-16.5 123.5v162q0 47 26.5 123.5t63.5 114.5q25 26 58 44.5t78 29.5t80 17.5t92.5 9t84.5 3t86 0.5h180q264 0 371 -92 q46 -40 73 -116t27 -122v-163q0 -157 -59 -234q-20 -26 -48.5 -43.5t-41.5 -21t-51 -13.5q1 0 13.5 -5l15 -6t14 -6t16 -7.5t15.5 -8t16.5 -9.5t15.5 -10.5t17.5 -12.5t16.5 -14t17 -17q62 -65 62 -240v-129q1 -50 -9 -103.5t-41.5 -114t-80.5 -95.5q-81 -57 -195 -73.5 t-258 -14.5h-125q-65 0 -112.5 3t-111.5 13t-119.5 33.5t-100.5 60.5q-53 47 -78 136t-25 164zM317 442q0 -3 0.5 -23t1 -28t2.5 -27.5t4 -30.5t7 -28.5t11.5 -28.5t16 -23.5t21.5 -21.5q43 -30 90.5 -37.5t167.5 -9.5h143q8 0 53 -0.5t56.5 0t48 2.5t51.5 6.5t41 11.5 t43.5 18.5t32.5 27.5q19 21 28 54t10 53.5t1 70.5v84q0 93 -15 135q-13 37 -38 62q-17 17 -43.5 28.5t-46.5 18t-59.5 9.5t-53.5 3.5t-59 0t-48 -0.5h-133h-30h-35.5t-34 -1t-38.5 -3t-34.5 -6t-37 -9t-30.5 -13.5t-30 -18.5q-39 -32 -50.5 -82t-13.5 -141v-52zM328 1200 q0 -49 2 -79t12.5 -64.5t30.5 -52.5q41 -34 114 -44t181 -8h106q88 -1 135 0.5t107 17t88 48.5q35 40 31 186v51q0 41 0.5 73.5t-13.5 64t-45 55.5q-26 21 -79.5 32t-90.5 12t-103 1h-20h-125q-224 0 -278 -47q-36 -33 -44.5 -62.5t-8.5 -95.5v-88z" />
<glyph unicode="9" horiz-adv-x="1507" d="M106 432v62h226v-109q0 -108 53 -158q29 -26 106.5 -37.5t147.5 -11.5l149 2q163 0 218 10q62 11 94 37q82 69 82 285v281q-3 -8 -6 -14t-6.5 -12.5t-5.5 -10t-6.5 -9.5t-6 -8.5t-8 -9.5t-8 -8.5t-10 -10.5t-11.5 -12q-64 -68 -369 -63h-79q-85 -1 -142.5 1t-137.5 20 t-126 53q-43 33 -70.5 79t-38.5 99t-14 90t-4 81v15v137q0 273 121 363q37 27 85 45.5t83.5 27t95 13t80.5 4.5h78h117q353 0 448 -74q87 -72 119.5 -163t32.5 -273v-682q0 -113 -34.5 -230t-111.5 -167q-62 -42 -193 -61t-274 -17h-166q-153 0 -247.5 24t-153.5 76 q-57 50 -82.5 130t-24.5 206zM338 1126q0 -119 9 -159q14 -68 59 -101q27 -20 72 -30t80 -11.5t109 -1.5h27h105q42 0 98 -2t123 11t100 42q12 10 21.5 23t15.5 23.5t10.5 28t6.5 27.5t3 31.5t1 30v34v32.5v115q0 33 -1 52t-7 56t-23.5 66.5t-44.5 50.5q-11 9 -28.5 16.5 t-34.5 12t-42 8t-41.5 5t-43.5 2.5t-38 1h-34.5h-24.5h-113q-66 0 -100 -1t-82.5 -7t-79.5 -21t-53 -39q-24 -27 -35.5 -66t-12.5 -61t-1 -67v-101z" />
<glyph unicode=":" horiz-adv-x="479" d="M104 0v276h273v-276h-273zM104 918v276h273v-276h-273z" />
<glyph unicode=";" horiz-adv-x="501" d="M104 -119h17q45 0 63 23q17 19 17 61v35h-76v266h270v-309q0 -47 -18 -91t-43 -69q-24 -25 -69 -41t-97 -16h-64v141zM121 918v276h272v-276h-272z" />
<glyph unicode="&#x3c;" horiz-adv-x="1409" d="M104 401v248l1207 424v-209l-1032 -342l1032 -311v-211z" />
<glyph unicode="=" horiz-adv-x="1275" d="M104 227v176h1080v-176h-1080zM104 645v180h1080v-180h-1080z" />
<glyph unicode="&#x3e;" horiz-adv-x="1402" d="M104 864v209l1207 -424v-248l-1205 -401v211l1033 311z" />
<glyph unicode="?" horiz-adv-x="1306" d="M104 1128v177q0 176 97 282q35 38 85.5 62t114 34.5t110 14t114.5 4.5h94q147 -2 200 -13q99 -19 168 -87q56 -54 84.5 -121.5t28.5 -169.5v-129q0 -69 -2.5 -112t-23 -108t-60.5 -100q-90 -79 -149 -96l-162 -57q-68 -22 -98 -66q-27 -36 -27 -100v-82h-203v106 q0 116 53 195q47 62 136 94l194 78q76 32 105 70q12 16 19 33t10 38.5t3.5 33t0 38.5t-0.5 33v82q0 10 0.5 31.5t0 28t-1.5 22.5t-4 24t-8 21.5t-13 26t-19 28.5q-53 74 -243 74h-97q-86 0 -139 -10t-96 -42q-68 -50 -68 -178v-160h-203zM438 0v279h281v-279h-281z" />
<glyph unicode="@" horiz-adv-x="1597" d="M57 741q1 152 60 290.5t158.5 239.5t237.5 160.5t290 59.5q135 0 262.5 -43.5t226.5 -120t159 -190t60 -244.5q0 -148 -66 -284t-180.5 -221t-244.5 -85q-38 0 -68 17.5t-45 42t-24.5 49t-12.5 42.5l-2 17l-61 -70q-78 -90 -197 -90q-120 -1 -198 96t-78 226q0 78 30 152 t79 128.5t109 96t122.5 63t116.5 21.5q127 0 159 -95l21 -57l41 127l176 4l-160 -590q-12 -35 -5 -79t38 -44q82 0 162 79t129 199.5t49 238.5q0 121 -51 219.5t-135.5 160t-190.5 94.5t-221 33q-172 0 -318.5 -85t-231.5 -231t-85 -318q0 -178 86.5 -331t236.5 -243 t328 -90q91 0 170 16.5t133.5 42.5t99 57.5t70.5 62.5t44 57t25 42l7 17h135q-3 -8 -10 -22.5t-34 -56t-60 -79t-91 -83.5t-124.5 -79.5t-163.5 -56t-205 -22.5q-154 0 -294.5 60.5t-242.5 162t-162 242t-59 294.5zM518 541q0 -70 34 -120t105 -50q69 0 135 90t103 203.5 t37 195.5q0 80 -31.5 130t-89.5 50q-66 0 -135.5 -81t-113.5 -198t-44 -220z" />
<glyph unicode="A" horiz-adv-x="1589" d="M53 0l600 1696h334l563 -1696h-231l-111 354h-800l-134 -354h-221zM465 543h678l-314 1032z" />
<glyph unicode="B" horiz-adv-x="1490" d="M104 0v1696h805q87 0 164 -19t119 -53q29 -23 43 -34.5t41.5 -42.5t41 -61t25 -79.5t11.5 -108.5v-88q0 -71 -20.5 -137t-53.5 -102q-54 -58 -123 -70q67 -31 85.5 -43t57.5 -51q38 -38 64.5 -115.5t26.5 -144.5v-125v-14q0 -97 -25 -169q-27 -77 -96 -137 q-67 -58 -143.5 -80t-182.5 -22h-840zM317 195h592q49 0 76 3.5t41 9t47 21.5q43 17 72 73.5t29 125.5v96q0 60 -21.5 119t-50.5 78q-55 34 -96.5 45.5t-116.5 11.5h-572v-583zM317 975h527q142 0 203 37q90 54 90 162v133q0 48 -24.5 89.5t-59.5 61.5q-46 26 -87.5 34.5 t-111.5 8.5h-537v-526z" />
<glyph unicode="C" horiz-adv-x="1570" d="M104 543v696q0 111 32.5 195.5t109.5 158.5q103 103 481 103h84h72h51h43q38 0 98 -5t105 -15t93 -31t81 -50q39 -35 63.5 -84t31 -92t9.5 -87q2 -22 2 -39t-2 -29v-111h-215v154q0 44 -10.5 74.5t-44.5 60.5q-19 17 -47.5 28.5t-51.5 17.5t-64 9.5t-56.5 4t-58.5 0.5 l-44 -1h-178q-209 0 -266 -35q-58 -37 -79 -91t-21 -136v-700q0 -217 51 -277q21 -26 68.5 -42t100 -20t108.5 -6q22 -1 41 -1q29 0 50 2h88h37q38 0 83 -1h15q60 0 126 14q74 16 106 52q24 29 35.5 61.5t13.5 56.5t2 73v133h221v-195q0 -77 -20 -148.5t-55 -113.5 q-30 -37 -80 -62.5t-96 -38t-117.5 -19t-109.5 -7t-108 -0.5h-26h-225q-343 0 -438 115q-52 62 -70.5 169.5t-18.5 258.5z" />
<glyph unicode="D" horiz-adv-x="1589" d="M104 -2v1698h791q311 0 469 -178q68 -81 94.5 -205.5t26.5 -243.5v-426q0 -346 -137 -479q-97 -95 -195.5 -129.5t-241.5 -34.5zM311 195h621q152 0 264 106q15 15 27.5 30t21 33.5t15 32t10.5 37t6 35.5t3 40t1 38.5v43v42.5v395v17q0 70 -1.5 106t-9 88.5t-27.5 91 t-52 70.5q-98 100 -369 100h-510v-1306z" />
<glyph unicode="E" horiz-adv-x="1292" d="M104 0v1696h1086v-195h-848v-526h797v-197h-797v-583h848v-195h-1086z" />
<glyph unicode="F" horiz-adv-x="1189" d="M104 0v1696h1024v-195h-813v-557h787v-186h-787v-758h-211z" />
<glyph unicode="G" horiz-adv-x="1628" d="M104 459v721q0 140 28 238.5t106 174.5q22 21 54.5 37.5t61 27t80 18t78 11t89 6t80 2.5t83.5 1h127q71 -1 105 -2t108.5 -6.5t119.5 -15t96 -29.5t81 -48q112 -103 112 -262v-170h-206v148q0 52 -23 85.5t-72 59.5q-78 41 -333 45h-93q-59 -1 -74.5 -1.5t-69.5 -2 t-77 -5.5t-60.5 -10.5t-60.5 -17t-38 -24.5q-31 -28 -49 -54.5t-25.5 -64t-8.5 -61.5t-1 -80v-668v-18.5v-26.5t1 -29t3 -33.5t5.5 -33t9.5 -34.5t13.5 -31t19 -29t25.5 -23q31 -22 70.5 -36t85.5 -18.5t75 -5.5q15 -1 34.5 -1t44.5 1q49 1 57 1h125q60 0 95 1t90 6t96 17.5 t69 32.5q12 9 22 18t17 21.5t12.5 21.5t8.5 25.5t5 24.5t2.5 28.5t0.5 28v32v31.5v166h-541v201h754v-385q0 -227 -78 -326q-32 -41 -82 -69.5t-105.5 -42t-120.5 -21.5q-56 -6 -111 -6h-15h-62.5h-62.5h-121q-200 0 -319.5 16t-180.5 62q-160 120 -160 381z" />
<glyph unicode="H" horiz-adv-x="1597" d="M104 0v1696h211v-707h959v707h221v-1696l-221 -4v782h-959v-780z" />
<glyph unicode="I" horiz-adv-x="528" d="M162 0v1696h221v-1696h-221z" />
<glyph unicode="J" horiz-adv-x="1173" d="M53 408v184h209v-195q0 -92 31 -125q36 -40 108 -60q65 -17 140 -17h16h53q47 0 112 11.5t99 39.5q42 35 53 69t11 99v1282h188v-1360q0 -78 -18 -133t-66 -103q-36 -37 -82.5 -59.5t-102.5 -30.5t-92 -10h-49h-40h-60h-43q-72 0 -120 2q-62 4 -134 26t-116 64 q-97 90 -97 316z" />
<glyph unicode="K" horiz-adv-x="1533" d="M104 0v1696h211v-721h154l647 721h275l-752 -811l868 -885h-280l-758 778h-152v-778h-213z" />
<glyph unicode="L" horiz-adv-x="1167" d="M96 0v1696h201v-1501h821v-195h-1022z" />
<glyph unicode="M" horiz-adv-x="2054" d="M104 0v1696h379l547 -1426l549 1426h375v-1696h-221v1522l-603 -1522h-204l-611 1522v-1522h-211z" />
<glyph unicode="N" horiz-adv-x="1636" d="M104 0v1696h353l880 -1532v1532h203v-1696h-356l-869 1495v-1495h-211z" />
<glyph unicode="O" horiz-adv-x="1628" d="M104 414v743q0 265 101 391q34 42 77 70.5t83 43.5t99 23t101.5 9.5t114.5 1.5h336q131 0 221.5 -21.5t159.5 -83.5q45 -39 75.5 -94t43 -111.5t16.5 -94t4 -72.5v-795q0 -242 -129 -334q-80 -57 -178.5 -73.5t-253.5 -16.5h-324q-148 0 -255.5 22t-178.5 82 q-35 28 -59 70t-35 87t-15 81.5t-4 71.5zM312 1158q0 -28 1 -30v-655q0 -159 52 -213q30 -31 72.5 -46t74 -17t93.5 -2h20h381q90 0 148.5 10t107.5 43q24 17 39 45t20.5 68.5t6.5 64t1 66.5v694v19v24.5t-0.5 25.5t-2.5 30t-4.5 30t-7 32t-10.5 30t-14.5 30t-19.5 27 q-12 14 -26 24.5t-26 18t-32 12t-31 7.5t-36.5 4t-34.5 1h-39.5h-38.5h-322q-14 -1 -70 1q-24 1 -42 1q-22 0 -34 -1q-20 -2 -59.5 -8t-64.5 -21.5t-47 -40.5q-13 -16 -23 -37t-15.5 -47.5t-9 -47.5t-5.5 -52q-2 -32 -2 -46v-18.5v-25.5z" />
<glyph unicode="P" horiz-adv-x="1437" d="M111 0v1696h811q35 0 50 -0.5t57 -5.5t71 -15.5t67.5 -33t69.5 -54.5q64 -65 90.5 -132.5t26.5 -186.5v-246q0 -146 -97 -264q-59 -70 -129 -100.5t-165 -30.5h-652v-627h-200zM305 821h586q109 0 153 29q33 19 55.5 43t33.5 43.5t17 52t6.5 52.5t0.5 61v16v123 q0 134 -70 199q-13 13 -27.5 23t-26.5 16t-27 11t-24.5 7t-24 3t-21 1h-19h-14.5h-598v-680z" />
<glyph unicode="Q" horiz-adv-x="1761" d="M104 1191q-1 15 -1 26t1 19q0 14 1.5 47t4.5 54.5t9.5 54t15 56.5t22.5 51t31 49q35 42 77.5 70.5t81.5 43.5t95.5 23t98 9.5t110.5 1.5h389q144 0 236 -21.5t168 -93.5q24 -23 43.5 -51.5t32 -55.5t21 -61.5t12.5 -59t6.5 -58.5t2.5 -51t-0.5 -44.5t-0.5 -30.5v-725 q0 -3 1 -18t0.5 -29.5t-3.5 -29.5q-2 -13 -3.5 -20.5t-4 -13t-3 -7t-4.5 -7t-6 -8.5l158 -110l-117 -154l-113 86q-32 -36 -52.5 -53t-61.5 -37q-57 -27 -130 -35t-182 -8h-403q-157 0 -261 22.5t-165 94.5q-23 27 -41 57.5t-29 54.5t-18.5 61.5t-11 55.5t-5.5 61.5t-2 55.5 v59v635v34zM301 539q0 -67 13.5 -152t43.5 -117q24 -27 53.5 -44t63 -23t49 -7t41.5 -1h439q9 0 36.5 -0.5t45.5 -0.5t45 2t49 7q75 16 118 53l-546 344l114 164l488 -338q3 9 3.5 32t2.5 34q2 14 2 75l2 580q0 208 -70 291q-20 23 -49 37t-79 19t-75.5 6t-91.5 1h-315 q-68 0 -99 -1t-82.5 -7.5t-85 -23t-57.5 -44.5q-59 -65 -59 -313v-573z" />
<glyph unicode="R" horiz-adv-x="1490" d="M104 0v1696h865q81 0 173.5 -25t155.5 -94q64 -73 88.5 -138.5t24.5 -142.5v-194q0 -155 -47 -221q-33 -43 -85 -77.5t-110 -45.5q5 -3 31.5 -15t39 -18.5t32 -20.5t33.5 -30q84 -93 84 -242v-432h-207v412q0 77 -16 118t-70 80q-57 43 -181 43h-589v-653h-222zM319 848 h592q58 0 88.5 4.5t67.5 21.5q66 27 101.5 104t35.5 173v76q0 75 -27.5 130.5t-60.5 84.5q-70 59 -223 59h-574v-653z" />
<glyph unicode="S" horiz-adv-x="1474" d="M111 398v8v133h198v-133q0 -54 9.5 -79t46.5 -65q10 -11 24 -20t28.5 -15.5t33.5 -11.5t35 -8.5t37.5 -6t35 -3.5t34.5 -1.5t30 -0.5h26.5h18.5h112q81 0 131.5 2t109 14t81.5 35q41 42 55 77t14 93v61q0 12 0.5 43.5t0.5 45t-3 39t-9.5 39.5t-19.5 32t-32 31 q-39 28 -91.5 38.5t-127.5 12.5l-334 16q-199 6 -305 88q-57 44 -94 127.5t-37 198.5v61q2 133 35.5 220.5t128.5 150.5q44 31 128.5 49t150 22t161.5 5h80q72 -1 110.5 -3t110.5 -11t128 -31.5t97 -57.5q50 -43 73.5 -106.5t23.5 -118.5v-168h-197v117q0 54 -16.5 86.5 t-59.5 56.5q-38 20 -101.5 29.5t-98 10.5t-101.5 1h-129h-19.5h-26t-27.5 -0.5t-32.5 -2t-31.5 -4t-32.5 -6.5t-29 -9.5t-27.5 -13t-22 -17.5q-32 -32 -46.5 -63.5t-16.5 -55t-2 -78.5v-63q0 -36 2 -57.5t21 -60t57 -62.5q68 -44 172 -47l381 -17q109 -5 173 -22.5 t126 -73.5q76 -67 94 -141q17 -67 16 -182v-25v-99v-9q0 -209 -143 -308q-71 -50 -191 -68q-108 -16 -209 -16h-22h-166h-105q-4 0 -8 -1q-46 -1 -90 5q-48 6 -91 17t-84 33.5t-75 56.5q-77 79 -77 277v10z" />
<glyph unicode="T" horiz-adv-x="1384" d="M53 1501v195h1280v-195h-536v-1501h-215v1501h-529z" />
<glyph unicode="U" horiz-adv-x="1536" d="M104 442v1254h211v-1223q0 -36 0.5 -55.5t4.5 -52t11 -52t22 -40.5t36 -33q83 -45 324 -45h143q241 0 311 63q58 53 58 213v1225h209v-1247q0 -111 -17.5 -187.5t-68.5 -134.5q-20 -23 -40.5 -41.5t-46.5 -31.5t-43.5 -22.5t-50.5 -15.5t-47.5 -9.5t-54.5 -5t-52 -2 t-59.5 0t-58.5 0.5h-215q-13 0 -73 -2q-33 -1 -59 -2q-22 0 -38 1q-36 2 -92 8.5t-102.5 26.5t-84.5 52q-80 70 -103.5 153.5t-23.5 204.5z" />
<glyph unicode="V" horiz-adv-x="1581" d="M53 1696h221l519 -1553l526 1553h219l-573 -1696h-353z" />
<glyph unicode="W" horiz-adv-x="2662" d="M53 1696h201l469 -1553l453 1553h311l446 -1553l463 1553h221l-510 -1696h-358l-416 1485l-430 -1485h-360z" />
<glyph unicode="X" horiz-adv-x="1622" d="M53 0l586 868l-520 828h235l457 -695l444 695h252l-542 -828l616 -868h-274l-504 750l-496 -750h-254z" />
<glyph unicode="Y" horiz-adv-x="1505" d="M53 1696h238l479 -778l469 778h231l-600 -989v-707h-211v700z" />
<glyph unicode="Z" horiz-adv-x="1423" d="M76 0v174l1009 1327h-968v195h1247v-189l-1016 -1312h1016v-195h-1288z" />
<glyph unicode="[" horiz-adv-x="675" d="M104 0v1696h455v-174h-248v-1348h248v-174h-455z" />
<glyph unicode="\" horiz-adv-x="933" d="M104 1696h170l560 -1696h-168z" />
<glyph unicode="]" horiz-adv-x="657" d="M104 0v174h250v1348h-250v174h455v-1696h-455z" />
<glyph unicode="^" horiz-adv-x="860" d="M104 1421l142 275h383l133 -275h-195l-129 158l-137 -158h-197z" />
<glyph unicode="_" horiz-adv-x="1320" d="M-31 -113h1374v-106h-1374v106z" />
<glyph unicode="`" horiz-adv-x="622" d="M104 1696h281l141 -393h-139z" />
<glyph unicode="a" horiz-adv-x="1589" d="M53 0l600 1696h334l563 -1696h-231l-111 354h-800l-134 -354h-221zM465 543h678l-314 1032z" />
<glyph unicode="b" horiz-adv-x="1490" d="M104 0v1696h805q87 0 164 -19t119 -53q29 -23 43 -34.5t41.5 -42.5t41 -61t25 -79.5t11.5 -108.5v-88q0 -71 -20.5 -137t-53.5 -102q-54 -58 -123 -70q67 -31 85.5 -43t57.5 -51q38 -38 64.5 -115.5t26.5 -144.5v-125v-14q0 -97 -25 -169q-27 -77 -96 -137 q-67 -58 -143.5 -80t-182.5 -22h-840zM317 195h592q49 0 76 3.5t41 9t47 21.5q43 17 72 73.5t29 125.5v96q0 60 -21.5 119t-50.5 78q-55 34 -96.5 45.5t-116.5 11.5h-572v-583zM317 975h527q142 0 203 37q90 54 90 162v133q0 48 -24.5 89.5t-59.5 61.5q-46 26 -87.5 34.5 t-111.5 8.5h-537v-526z" />
<glyph unicode="c" horiz-adv-x="1570" d="M104 543v696q0 111 32.5 195.5t109.5 158.5q103 103 481 103h84h72h51h43q38 0 98 -5t105 -15t93 -31t81 -50q39 -35 63.5 -84t31 -92t9.5 -87q2 -22 2 -39t-2 -29v-111h-215v154q0 44 -10.5 74.5t-44.5 60.5q-19 17 -47.5 28.5t-51.5 17.5t-64 9.5t-56.5 4t-58.5 0.5 l-44 -1h-178q-209 0 -266 -35q-58 -37 -79 -91t-21 -136v-700q0 -217 51 -277q21 -26 68.5 -42t100 -20t108.5 -6q22 -1 41 -1q29 0 50 2h88h37q38 0 83 -1h15q60 0 126 14q74 16 106 52q24 29 35.5 61.5t13.5 56.5t2 73v133h221v-195q0 -77 -20 -148.5t-55 -113.5 q-30 -37 -80 -62.5t-96 -38t-117.5 -19t-109.5 -7t-108 -0.5h-26h-225q-343 0 -438 115q-52 62 -70.5 169.5t-18.5 258.5z" />
<glyph unicode="d" horiz-adv-x="1587" d="M104 -2v1698h791q311 0 469 -178q68 -81 94.5 -205.5t26.5 -243.5v-426q0 -346 -137 -479q-97 -95 -195.5 -129.5t-241.5 -34.5zM311 195h621q152 0 264 106q15 15 27.5 30t21 33.5t15 32t10.5 37t6 35.5t3 40t1 38.5v43v42.5v395v17q0 70 -1.5 106t-9 88.5t-27.5 91 t-52 70.5q-98 100 -369 100h-510v-1306z" />
<glyph unicode="e" horiz-adv-x="1292" d="M104 0v1696h1086v-195h-848v-526h797v-197h-797v-583h848v-195h-1086z" />
<glyph unicode="f" horiz-adv-x="1187" d="M104 0v1696h1024v-195h-813v-557h787v-186h-787v-758h-211z" />
<glyph unicode="g" horiz-adv-x="1626" d="M104 459v721q0 140 28 238.5t106 174.5q22 21 54.5 37.5t61 27t80 18t78 11t89 6t80 2.5t83.5 1h127q71 -1 105 -2t108.5 -6.5t119.5 -15t96 -29.5t81 -48q112 -103 112 -262v-170h-206v148q0 52 -23 85.5t-72 59.5q-78 41 -333 45h-93q-59 -1 -74.5 -1.5t-69.5 -2 t-77 -5.5t-60.5 -10.5t-60.5 -17t-38 -24.5q-31 -28 -49 -54.5t-25.5 -64t-8.5 -61.5t-1 -80v-668v-18.5v-26.5t1 -29t3 -33.5t5.5 -33t9.5 -34.5t13.5 -31t19 -29t25.5 -23q31 -22 70.5 -36t85.5 -18.5t75 -5.5q15 -1 34.5 -1t44.5 1q49 1 57 1h125q60 0 95 1t90 6t96 17.5 t69 32.5q12 9 22 18t17 21.5t12.5 21.5t8.5 25.5t5 24.5t2.5 28.5t0.5 28v32v31.5v166h-541v201h754v-385q0 -227 -78 -326q-32 -41 -82 -69.5t-105.5 -42t-120.5 -21.5q-56 -6 -111 -6h-15h-62.5h-62.5h-121q-200 0 -319.5 16t-180.5 62q-160 120 -160 381z" />
<glyph unicode="h" horiz-adv-x="1595" d="M104 0v1696h211v-707h959v707h221v-1696l-221 -4v782h-959v-780z" />
<glyph unicode="i" horiz-adv-x="522" d="M162 0v1696h221v-1696h-221z" />
<glyph unicode="j" horiz-adv-x="1173" d="M53 408v184h209v-195q0 -92 31 -125q36 -40 108 -60q65 -17 140 -17h16h53q47 0 112 11.5t99 39.5q42 35 53 69t11 99v1282h188v-1360q0 -78 -18 -133t-66 -103q-36 -37 -82.5 -59.5t-102.5 -30.5t-92 -10h-49h-40h-60h-43q-72 0 -120 2q-62 4 -134 26t-116 64 q-97 90 -97 316z" />
<glyph unicode="k" horiz-adv-x="1531" d="M104 0v1696h211v-721h154l647 721h275l-752 -811l868 -885h-280l-758 778h-152v-778h-213z" />
<glyph unicode="l" horiz-adv-x="1165" d="M96 0v1696h201v-1501h821v-195h-1022z" />
<glyph unicode="m" horiz-adv-x="2052" d="M104 0v1696h379l547 -1426l549 1426h375v-1696h-221v1522l-603 -1522h-204l-611 1522v-1522h-211z" />
<glyph unicode="n" horiz-adv-x="1628" d="M104 0v1696h353l880 -1532v1532h203v-1696h-356l-869 1495v-1495h-211z" />
<glyph unicode="o" horiz-adv-x="1638" d="M104 414v743q0 265 101 391q34 42 77 70.5t83 43.5t99 23t101.5 9.5t114.5 1.5h336q131 0 221.5 -21.5t159.5 -83.5q45 -39 75.5 -94t43 -111.5t16.5 -94t4 -72.5v-795q0 -242 -129 -334q-80 -57 -178.5 -73.5t-253.5 -16.5h-324q-148 0 -255.5 22t-178.5 82 q-35 28 -59 70t-35 87t-15 81.5t-4 71.5zM312 1158q0 -28 1 -30v-655q0 -159 52 -213q30 -31 72.5 -46t74 -17t93.5 -2h20h381q90 0 148.5 10t107.5 43q24 17 39 45t20.5 68.5t6.5 64t1 66.5v694v19v24.5t-0.5 25.5t-2.5 30t-4.5 30t-7 32t-10.5 30t-14.5 30t-19.5 27 q-12 14 -26 24.5t-26 18t-32 12t-31 7.5t-36.5 4t-34.5 1h-39.5h-38.5h-322q-14 -1 -70 1q-24 1 -42 1q-22 0 -34 -1q-20 -2 -59.5 -8t-64.5 -21.5t-47 -40.5q-13 -16 -23 -37t-15.5 -47.5t-9 -47.5t-5.5 -52q-2 -32 -2 -46v-18.5v-25.5z" />
<glyph unicode="p" horiz-adv-x="1427" d="M96 0v1696h811q35 0 50.5 -0.5t58 -5.5t71.5 -15.5t67.5 -33t68.5 -54.5q63 -65 89.5 -132.5t26.5 -186.5v-246q0 -147 -96 -264q-59 -70 -129.5 -100.5t-165.5 -30.5h-651v-627h-201zM291 821h586q109 0 153 29q33 19 55.5 43t33.5 43.5t17 52t6.5 52.5t0.5 61v16v123 q0 134 -70 199q-13 13 -27.5 23t-26.5 16t-27 11t-24.5 7t-24 3t-21 1h-19h-14.5h-598v-680z" />
<glyph unicode="q" horiz-adv-x="1773" d="M104 1191q-1 15 -1 26t1 19q0 14 1.5 47t4.5 54.5t9.5 54t15 56.5t22.5 51t31 49q35 42 77.5 70.5t81.5 43.5t95.5 23t98 9.5t110.5 1.5h389q144 0 236 -21.5t168 -93.5q24 -23 43.5 -51.5t32 -55.5t21 -61.5t12.5 -59t6.5 -58.5t2.5 -51t-0.5 -44.5t-0.5 -30.5v-725 q0 -3 1 -18t0.5 -29.5t-3.5 -29.5q-2 -13 -3.5 -20.5t-4 -13t-3 -7t-4.5 -7t-6 -8.5l158 -110l-117 -154l-113 86q-32 -36 -52.5 -53t-61.5 -37q-57 -27 -130 -35t-182 -8h-403q-157 0 -261 22.5t-165 94.5q-23 27 -41 57.5t-29 54.5t-18.5 61.5t-11 55.5t-5.5 61.5t-2 55.5 v59v635v34zM301 539q0 -67 13.5 -152t43.5 -117q24 -27 53.5 -44t63 -23t49 -7t41.5 -1h439q9 0 36.5 -0.5t45.5 -0.5t45 2t49 7q75 16 118 53l-546 344l114 164l488 -338q3 9 3.5 32t2.5 34q2 14 2 75l2 580q0 208 -70 291q-20 23 -49 37t-79 19t-75.5 6t-91.5 1h-315 q-68 0 -99 -1t-82.5 -7.5t-85 -23t-57.5 -44.5q-59 -65 -59 -313v-573z" />
<glyph unicode="r" horiz-adv-x="1505" d="M104 0v1696h863q81 0 173.5 -25t155.5 -94q64 -73 88.5 -138.5t24.5 -142.5v-194q0 -155 -47 -221q-33 -43 -85 -77.5t-110 -45.5q5 -3 31.5 -15t39 -18.5t32 -20.5t33.5 -30q47 -50 65 -107.5t18 -134.5v-432h-206v412q0 77 -16 118t-70 80q-57 43 -181 43h-589v-653 h-220zM317 848h592q58 0 88.5 4.5t67.5 21.5q66 27 101.5 104t35.5 173v76q0 75 -27 130t-59 85q-70 59 -225 59h-574v-653z" />
<glyph unicode="s" horiz-adv-x="1474" d="M111 398v8v133h198v-133q0 -54 9.5 -79t46.5 -65q10 -11 24 -20t28.5 -15.5t33.5 -11.5t35 -8.5t37.5 -6t35 -3.5t34.5 -1.5t30 -0.5h26.5h18.5h112q81 0 131.5 2t109 14t81.5 35q41 42 55 77t14 93v61q0 12 0.5 43.5t0.5 45t-3 39t-9.5 39.5t-19.5 32t-32 31 q-39 28 -91.5 38.5t-127.5 12.5l-334 16q-199 6 -305 88q-57 44 -94 127.5t-37 198.5v61q2 133 35.5 220.5t128.5 150.5q44 31 128.5 49t150 22t161.5 5h80q72 -1 110.5 -3t110.5 -11t128 -31.5t97 -57.5q50 -43 73.5 -106.5t23.5 -118.5v-168h-197v117q0 54 -16.5 86.5 t-59.5 56.5q-38 20 -101.5 29.5t-98 10.5t-101.5 1h-129h-19.5h-26t-27.5 -0.5t-32.5 -2t-31.5 -4t-32.5 -6.5t-29 -9.5t-27.5 -13t-22 -17.5q-32 -32 -46.5 -63.5t-16.5 -55t-2 -78.5v-63q0 -36 2 -57.5t21 -60t57 -62.5q68 -44 172 -47l381 -17q109 -5 173 -22.5 t126 -73.5q76 -67 94 -141q17 -67 16 -182v-25v-99v-9q0 -209 -143 -308q-71 -50 -191 -68q-108 -16 -209 -16h-22h-166h-105q-4 0 -8 -1q-46 -1 -90 5q-48 6 -91 17t-84 33.5t-75 56.5q-77 79 -77 277v10z" />
<glyph unicode="t" horiz-adv-x="1384" d="M41 1501v195h1280v-195h-537v-1501h-217v1501h-526z" />
<glyph unicode="u" horiz-adv-x="1542" d="M104 442v1254h211v-1223q0 -36 0.5 -55.5t4.5 -52t11 -52t22 -40.5t36 -33q83 -45 324 -45h143q241 0 311 63q58 53 58 213v1225h209v-1247q0 -111 -17.5 -187.5t-68.5 -134.5q-20 -23 -40.5 -41.5t-46.5 -31.5t-43.5 -22.5t-50.5 -15.5t-47.5 -9.5t-54.5 -5t-52 -2 t-59.5 0t-58.5 0.5h-215q-13 0 -73 -2q-33 -1 -59 -2q-22 0 -38 1q-36 2 -92 8.5t-102.5 26.5t-84.5 52q-80 70 -103.5 153.5t-23.5 204.5z" />
<glyph unicode="v" horiz-adv-x="1581" d="M53 1696h221l519 -1553l526 1553h219l-573 -1696h-353z" />
<glyph unicode="w" horiz-adv-x="2662" d="M53 1696h201l469 -1553l453 1553h311l446 -1553l463 1553h221l-510 -1696h-358l-416 1485l-430 -1485h-360z" />
<glyph unicode="x" horiz-adv-x="1622" d="M27 0l583 868l-518 828h236l456 -695l443 695h254l-543 -828l616 -868h-274l-504 750l-495 -750h-254z" />
<glyph unicode="y" horiz-adv-x="1505" d="M53 1696h238l479 -778l469 778h231l-600 -989v-707h-211v700z" />
<glyph unicode="z" horiz-adv-x="1423" d="M63 0v174l1010 1327h-969v195h1248v-189l-1016 -1312h1016v-195h-1289z" />
<glyph unicode="{" horiz-adv-x="778" d="M104 772v158h31q38 0 58 20q5 4 8.5 8.5t6.5 10t5 9t3 10t1.5 10t1 11.5t0.5 10.5v12v12.5v244q0 84 25 174.5t90 151.5q58 53 107 67.5t155 14.5h76v-170h-70q-45 0 -61 -4t-43 -19q-74 -47 -74 -258v-299q0 -30 -23 -63q-18 -25 -47 -37q27 -9 43 -25q27 -34 27 -69 l2 -324q0 -150 31 -197q22 -32 50.5 -46.5t82.5 -14.5h82v-172h-88q-50 0 -79.5 2.5t-78 21.5t-90.5 56q-21 19 -38 41t-29 49.5t-21 49t-14 55.5t-8.5 51.5t-5 54.5t-2 47.5t-0.5 47.5l1 36v154q0 1 0.5 13.5t0 19t-2 17.5t-5.5 20t-11 16q-20 22 -60 22h-37z" />
<glyph unicode="|" horiz-adv-x="382" d="M104 1692h181l2 -2106h-181z" />
<glyph unicode="}" horiz-adv-x="776" d="M104 1526v170h78q106 0 155 -14.5t107 -67.5q65 -61 90 -151.5t25 -174.5v-244q0 -28 0.5 -37.5t6 -26.5t18.5 -30q22 -20 57 -20h31v-158h-35q-39 0 -59 -22q-5 -6 -9 -14t-6 -14.5t-3 -16.5t-1 -15v-15v-11v-154l1 -36q0 -37 -0.5 -47.5t-2 -47.5t-5 -54.5t-8.5 -51.5 t-14 -55.5t-21 -49t-29 -49.5t-38 -41q-42 -37 -90 -56t-77.5 -21.5t-81.5 -2.5h-87v172h82q53 0 81 14.5t50 46.5q35 53 35 197v324q0 37 29 69q15 15 41 25q-33 13 -47 37q-23 33 -23 63v299v8q2 202 -75 250q-25 15 -41.5 19t-61.5 4h-72z" />
<glyph unicode="~" horiz-adv-x="921" d="M119 578v75q1 109 48 166t118 64q78 7 180 -49l102 -60q52 -32 76 -6q29 33 27 80l-2 43h153v-78q0 -94 -60.5 -168t-146.5 -67q-12 1 -22 3t-21.5 6t-17.5 6t-20 9.5t-17.5 9.5t-20.5 11.5t-20 11.5l-102 59q-1 0 -7.5 3t-9.5 4.5t-9.5 4t-10.5 3t-10.5 1t-11 -1 t-10 -4.5t-9.5 -8q-25 -28 -23 -78l2 -40h-155z" />
<glyph unicode="&#xa1;" horiz-adv-x="593" d="M162 1067v279h270v-279h-270zM190 -350v1233h207v-1233h-207z" />
<glyph unicode="&#xa2;" horiz-adv-x="1583" d="M113 543v696q0 109 31 190.5t108 163.5q52 56 167.5 83.5t215.5 27.5l102 -2v110h154v-108h33q1 0 32 -0.5t54.5 -2t64 -5t75 -11t73.5 -18.5t74.5 -29.5t62.5 -42.5q38 -33 61.5 -75.5t32 -93t10.5 -79t2 -71.5v-12v-111h-217v154q0 95 -55 145q-22 20 -54.5 33 t-63.5 17.5t-63.5 7t-54 1.5t-34.5 0h-33v-1323h37q208 -7 274 66q25 26 37 60.5t14 60.5t2 76v133h222v-195q0 -79 -21 -149.5t-57 -112.5q-39 -47 -109 -78t-145 -41.5t-127 -13t-86 -0.5h-41v-109h-154v109h-98q-43 0 -85 2.5t-117.5 12.5t-139 37.5t-98.5 68.5 q-53 61 -69.5 166t-16.5 262zM328 539q0 -225 49 -283q34 -38 124.5 -54t160.5 -14h75v1323h-43q-214 0 -266 -34q-58 -37 -79 -95t-21 -143v-700z" />
<glyph unicode="&#xa3;" horiz-adv-x="1714" d="M104 766v180h244q-35 206 -33 352q0 121 26 185t101 129q32 28 83 45.5t122.5 25t121.5 10t132 3.5h88q12 0 59 -0.5t61 -0.5t56 -1.5t58.5 -3.5t52.5 -5.5t53.5 -9t45.5 -13.5t45.5 -18t36.5 -23.5t34 -29.5q84 -87 84 -262v-135h-211v141q0 58 -39 111 q-18 24 -50.5 38.5t-81 19.5t-71 6t-69.5 1h-179q-233 0 -284 -47q-36 -35 -49 -88.5t-15 -132.5q-1 -52 2.5 -94.5t13 -105.5t13.5 -97h299v-180h-279q2 -23 16.5 -108.5t18.5 -139.5q10 -179 0 -289q152 -36 373 -30q17 0 54.5 1t57.5 1.5t53.5 2.5t53.5 5.5t47 9.5t44 15 t34 22.5t27 30.5q41 69 41 168v123h213v-138q4 -247 -113 -346q-37 -31 -88 -51t-128.5 -29t-124.5 -12t-148 -6q-223 -3 -422 33q-27 6 -63.5 17.5t-47.5 14.5q-65 -26 -129 -41q-71 -13 -126.5 -18.5t-78.5 -5t-24 3.5v205q95 -5 174 12q29 5 44 9t34 14.5t36 29.5 q2 93 -1 151t-15 169q-9 95 -29 176h-254z" />
<glyph unicode="&#xa5;" horiz-adv-x="1650" d="M104 1702h240l477 -780l469 780h232l-475 -797h292v-149h-391l-26 -47v-115h417v-150h-417v-440h-211v440h-410v148h410v113l-29 51h-381v151h289z" />
<glyph unicode="&#xa7;" horiz-adv-x="1255" d="M115 797q0 191 182 303l55 33q-60 56 -86.5 117.5t-23.5 142.5q3 145 118 238t271 93q186 1 299.5 -119t107.5 -298h-127q8 88 -26 156.5t-109 105.5q-50 25 -112 28t-118.5 -13t-100.5 -56t-58 -96q-36 -162 164 -287l332 -205q63 -40 105.5 -72.5t83.5 -76.5t60.5 -96 t18.5 -113q-1 -101 -48 -175t-138 -135l-66 -47q66 -51 98 -113.5t33 -146.5q6 -150 -109 -247t-288 -103q-122 -2 -220 57t-149.5 158t-46.5 215h137q-15 -141 74 -225q56 -52 144 -69t170.5 12.5t115.5 101.5q38 87 8 176t-114 143l-465 310q-172 113 -172 303zM240 821 q-3 -70 31.5 -122.5t101.5 -96.5l448 -297l56 35q146 86 143 215q0 127 -117 201l-473 303l-47 -29q-140 -73 -143 -209z" />
<glyph unicode="&#xa8;" horiz-adv-x="854" d="M104 1450v246h267v-246h-267zM487 1450v246h265v-246h-265z" />
<glyph unicode="&#xa9;" horiz-adv-x="1921" d="M114 848q0 160 55.5 313.5t158 273.5t269 193.5t372.5 73.5t372.5 -73.5t269 -193.5t158 -273.5t55.5 -313.5t-55.5 -313.5t-158 -273.5t-269 -193.5t-372.5 -73.5t-372.5 73.5t-269 193.5t-158 273.5t-55.5 313.5zM208 848q0 -116 29 -225.5t92 -207t151.5 -171 t214.5 -116t274 -42.5t274 42.5t214.5 116t151.5 171t92 207t29 225.5t-29 225.5t-92 207t-151.5 171t-214.5 116t-274 42.5t-274 -42.5t-214.5 -116t-151.5 -171t-92 -207t-29 -225.5zM524 842q-1 105 27.5 202t83 175t143 123.5t197.5 41.5q151 -3 262 -78t135 -210l8 -39 h-104l-6 30q-22 99 -107 154t-188 53q-76 -2 -136.5 -29t-100 -69.5t-66 -101t-37.5 -120t-12 -130.5q0 -71 7 -127t28 -114t56 -98t95 -69.5t141 -38.5q114 -13 213.5 69.5t124.5 207.5h103q-30 -166 -153.5 -268.5t-293.5 -92.5q-93 5 -166 37t-120 81.5t-77.5 117 t-43.5 139.5t-13 154z" />
<glyph unicode="&#xaa;" horiz-adv-x="993" d="M104 649v111h773v-111h-773zM109 825l309 871h170l289 -871h-119l-58 183h-409l-68 -183h-114zM319 1104h349l-160 530z" />
<glyph unicode="&#xab;" horiz-adv-x="1325" d="M104 553v244l500 366v-241l-352 -252l344 -246v-254zM729 553v244l498 366v-241l-353 -252l347 -246v-254z" />
<glyph unicode="&#xac;" horiz-adv-x="1933" d="M119 596v131h1710v-727h-141v596h-1569z" />
<glyph unicode="&#xad;" horiz-adv-x="937" d="M104 618v205h730v-205h-730z" />
<glyph unicode="&#xae;" horiz-adv-x="1916" d="M113 843q0 160 55.5 313t158 273t268.5 193.5t372 73.5q166 0 307 -48t240 -129.5t170 -191t104 -232t33 -252.5t-33 -252.5t-104 -232t-170 -191t-240 -129.5t-307 -48q-206 0 -372 73.5t-268.5 193.5t-158 273t-55.5 313zM206 843q0 -116 29 -226t92 -207.5t151.5 -171 t214.5 -116t274 -42.5q184 0 333 65.5t240.5 173t141 244.5t49.5 280t-49.5 280t-141 244.5t-240.5 173t-333 65.5q-148 0 -274 -42.5t-214.5 -116t-151.5 -171t-92 -207.5t-29 -226zM623 317v1026h374q59 0 107 -5.5t97.5 -23t84 -46t58 -78t28.5 -115.5q14 -173 -168 -254 q6 -4 23.5 -13.5t23.5 -13.5t17.5 -13t19.5 -19.5t15 -24.5q28 -54 29 -115.5t0 -131.5t22 -132q2 -7 5.5 -13.5t9 -15t7.5 -12.5h-106q-8 0 -8 2q-20 41 -24 111t-2 128t-17.5 115.5t-67.5 84.5q-13 7 -26.5 12t-23 7.5t-26.5 3.5t-23.5 1h-28h-28.5h-272v-465h-100z M727 1255l2 -387h281q53 0 97.5 8.5t85 29t62.5 60.5t19 97q-5 192 -258 192h-289z" />
<glyph unicode="&#xb0;" horiz-adv-x="772" d="M111 1463q4 46 26 88.5t54 75t82 52.5t110 21t110.5 -17.5t83.5 -50.5t56 -73.5t28.5 -87.5t1.5 -92.5t-26 -88.5t-54 -74.5t-82 -52t-110 -20.5t-110.5 17.5t-83.5 50t-56 73t-28.5 87.5t-1.5 92zM252.5 1447.5q-6.5 -29.5 1 -58t22.5 -52.5t44.5 -38.5t66.5 -14.5 t66.5 15.5t44.5 40t22 53.5t-0.5 58t-23 53t-45 38.5t-66.5 13.5q-37 0 -66.5 -15.5t-44.5 -39.5t-21.5 -53.5z" />
<glyph unicode="&#xb1;" horiz-adv-x="1368" d="M104 -2v127h1151v-125zM104 793l2 143h504v508h138v-510h507v-141h-507v-508h-138v508h-506z" />
<glyph unicode="&#xb4;" horiz-adv-x="626" d="M104 1303l144 393h278l-280 -393h-142z" />
<glyph unicode="&#xb5;" horiz-adv-x="1495" d="M33 -403q-3 69 12 122.5t34.5 105t24.5 103.5q9 61 9 70v1243h209v-856q0 -104 64.5 -185t160.5 -81q64 2 135.5 38t124 98.5t53.5 129.5v856h203v-967q0 -51 17 -99.5t53 -79t81 -21.5q85 15 111 108l18 66h46l-17 -76q-14 -67 -69 -121.5t-119 -79.5t-113 -18 q-81 11 -147.5 83.5t-69.5 164.5l-63 -66q-78 -76 -166 -125.5t-152 -48.5q-65 2 -150 39.5t-135 105.5v-86q0 -67 21.5 -130t43.5 -130.5t23 -144.5q2 -65 -32.5 -116t-91.5 -48q-53 1 -85 44.5t-34 101.5z" />
<glyph unicode="&#xb6;" horiz-adv-x="1241" d="M117 1245q-3 187 126 319.5t322 131.5h563v-2048h-149v1888h-277v-1888h-149v1161q-118 1 -218 59.5t-158.5 158.5t-59.5 218z" />
<glyph unicode="&#xb7;" horiz-adv-x="477" d="M104 715v276h273v-276h-273z" />
<glyph unicode="&#xba;" horiz-adv-x="937" d="M100 647v107h734v-107h-734zM111 1040v381q0 136 51 199q40 50 96 64t148 14h172q133 0 196 -56q70 -60 70 -190v-408q0 -123 -66 -170q-40 -29 -92 -38t-131 -9h-164q-159 0 -223 54q-57 48 -57 159zM217 1071q0 -81 29 -110q15 -16 39 -24t39 -8.5t53 -0.5h194 q33 0 51 1t41.5 7t41.5 18q32 24 32 125v357v13v17t-0.5 18t-2.5 20.5t-5 19.5t-8 21t-12 18t-14.5 14t-18.5 9.5t-17 6t-21.5 3.5t-20 1h-24h-22.5h-163q-6 0 -35.5 0.5t-39 -0.5t-30 -3.5t-33.5 -10.5t-24 -20q-6 -7 -10.5 -17.5t-8 -19.5t-5.5 -22.5t-3 -22t-1.5 -23 t-0.5 -20.5v-19v-14v-334z" />
<glyph unicode="&#xbb;" horiz-adv-x="1337" d="M104 922v241l500 -366v-244l-491 -383v254l346 246zM731 922v241l496 -366v-244l-490 -383v254l348 246z" />
<glyph unicode="&#xbf;" horiz-adv-x="1417" d="M162 41v131q0 50 1.5 81t9 81.5t26.5 90.5t49 67q87 76 149 94l162 57q66 22 98 66q27 36 27 100v82h203v-105q0 -115 -53 -194q-44 -61 -136 -94l-194 -80q-78 -31 -105 -70q-12 -16 -19 -33t-10 -38t-3.5 -32t0 -38t0.5 -33v-82q0 -10 -0.5 -32t0 -29t1.5 -23t4 -23.5 t8 -21.5t13 -26.5t19 -28.5q53 -72 243 -72h95q91 0 143 9t94 40q68 51 68 178v162h200v-176q0 -182 -94 -282q-35 -39 -86 -63.5t-114 -35t-110.5 -13.5t-113.5 -3h-94q-61 0 -87 0.5t-74.5 5.5t-77 15t-64.5 29.5t-66 49.5q-55 51 -83.5 118.5t-28.5 170.5zM643 1073v281 h281v-281h-281z" />
<glyph unicode="&#xc0;" horiz-adv-x="1595" d="M53 0l600 1696h334l563 -1696h-231l-111 354h-800l-134 -354h-221zM465 543h678l-314 1032zM594 2247h280l142 -394h-139z" />
<glyph unicode="&#xc1;" horiz-adv-x="1601" d="M53 0l600 1696h334l563 -1696h-231l-111 354h-800l-134 -354h-221zM465 543h678l-314 1032zM643 1853l143 394h279l-281 -394h-141z" />
<glyph unicode="&#xc2;" horiz-adv-x="1613" d="M53 0l600 1696h334l563 -1696h-231l-111 354h-800l-134 -354h-221zM465 543h678l-314 1032zM504 1847l141 275h383l133 -275h-194l-129 158l-138 -158h-196z" />
<glyph unicode="&#xc3;" horiz-adv-x="1595" d="M53 0l600 1696h334l563 -1696h-231l-111 354h-800l-134 -354h-221zM465 543h678l-314 1032zM485 1847v76q1 108 48 165t118 64q78 7 180 -49l103 -59q52 -32 76 -6q28 32 26 80l-2 43h154v-78q0 -94 -60.5 -168.5t-146.5 -67.5q-13 1 -26.5 4.5t-22 6.5t-23 10t-20 10 t-24 13.5t-23.5 13.5l-103 59q-1 0 -8.5 4t-11 5t-11 3.5t-12.5 2.5t-11.5 -0.5t-12 -3.5t-10.5 -9q-25 -28 -23 -78l2 -41h-156z" />
<glyph unicode="&#xc4;" horiz-adv-x="1595" d="M53 0l600 1696h334l563 -1696h-231l-111 354h-800l-134 -354h-221zM465 543h678l-314 1032zM487 1849v246h267v-246h-267zM870 1849v246h265v-246h-265z" />
<glyph unicode="&#xc5;" horiz-adv-x="1595" d="M53 0l600 1696h334l563 -1696h-231l-111 354h-800l-134 -354h-221zM465 543h678l-314 1032zM542 2175.5q4 46.5 26 89t54 75t81.5 52.5t109.5 21q77 1 137.5 -29t92.5 -78.5t47.5 -108t1.5 -119.5t-44.5 -109.5t-90 -81t-136.5 -32.5q-60 -1 -110 17.5t-82.5 50t-56 73 t-29 87.5t-1.5 92.5zM683.5 2161q-6.5 -29 1 -58t23 -52.5t45 -38t66.5 -13.5q37 0 66.5 15t44 39t21.5 53.5t-0.5 58t-23 52.5t-45.5 38.5t-67 13.5q-37 0 -66.5 -15.5t-44 -39.5t-21 -53z" />
<glyph unicode="&#xc6;" horiz-adv-x="2615" d="M104 0l1231 1696h1157v-178h-895v-560h869v-180h-869v-604h916v-174h-1102v365h-827l-269 -365h-211zM686 526h723v990z" />
<glyph unicode="&#xc7;" horiz-adv-x="1570" d="M104 543v696q0 111 32.5 195.5t109.5 158.5q111 111 481 111h84q2 0 52 -0.5t68.5 -1t70.5 -3.5t80.5 -7t75 -12.5t77 -19.5t63.5 -27.5t56 -37.5q39 -35 63.5 -84t31 -92t9.5 -86.5t0 -68.5v-111h-215v154q0 97 -55 145q-19 17 -47.5 28.5t-51.5 17.5t-64 9.5t-56.5 4 t-58.5 0.5l-44 -1h-178q-214 0 -266 -34q-57 -37 -78.5 -95.5t-21.5 -142.5v-700q0 -225 51 -283q21 -26 68.5 -42t100 -20.5t108 -6.5t91.5 1h88q172 -4 249 11q85 17 118 55q24 29 35.5 63.5t13.5 59t2 74.5v133h221v-195q0 -77 -20 -148.5t-55 -113.5 q-63 -76 -201.5 -108t-271.5 -25h-43l-91 -449l-194 168l151 281h-112q-42 0 -84 2.5t-117.5 12.5t-139 37.5t-97.5 68.5q-52 62 -70.5 169.5t-18.5 258.5z" />
<glyph unicode="&#xc8;" horiz-adv-x="1263" d="M104 0v1696h1086v-195h-848v-526h797v-197h-797v-583h848v-195h-1086zM543 2247h280l142 -394h-140z" />
<glyph unicode="&#xc9;" horiz-adv-x="1298" d="M104 0v1696h1086v-195h-848v-526h797v-197h-797v-583h848v-195h-1086zM502 1845l143 393h279l-281 -393h-141z" />
<glyph unicode="&#xca;" horiz-adv-x="1275" d="M104 0v1696h1086v-195h-848v-526h797v-197h-797v-583h848v-195h-1086zM379 1847l141 275h383l133 -275h-194l-129 158l-138 -158h-196z" />
<glyph unicode="&#xcb;" horiz-adv-x="1263" d="M104 0v1696h1086v-195h-848v-526h797v-197h-797v-583h848v-195h-1086zM391 1849v246h266v-246h-266zM774 1849v246h264v-246h-264z" />
<glyph unicode="&#xcc;" horiz-adv-x="520" d="M41 2247h281l141 -394h-139zM162 0v1696h221v-1696h-221z" />
<glyph unicode="&#xcd;" horiz-adv-x="528" d="M117 1853l143 394h279l-281 -394h-141zM162 0v1696h221v-1696h-221z" />
<glyph unicode="&#xce;" horiz-adv-x="522" d="M-43 1847l141 275h383l133 -275h-194l-129 158l-137 -158h-197zM162 0v1696h221v-1696h-221z" />
<glyph unicode="&#xcf;" horiz-adv-x="522" d="M-43 1849v246h266v-246h-266zM162 0v1696h221v-1696h-221zM340 1849v246h264v-246h-264z" />
<glyph unicode="&#xd1;" horiz-adv-x="1648" d="M106 0v1696h355l878 -1532v1532h205v-1696h-358l-869 1495v-1495h-211zM477 1858v75q1 108 47 165t117 65q86 5 180 -52l105 -57q50 -31 75 -6q29 36 27 80l-2 41h152v-76q0 -95 -60 -168.5t-145 -66.5q-12 1 -22 3t-21.5 6t-17.5 6t-20 9.5t-17.5 9.5t-20.5 11.5 t-20 11.5l-105 57q-54 30 -78 4q-24 -34 -22 -78l2 -40h-154z" />
<glyph unicode="&#xd2;" horiz-adv-x="1626" d="M104 414v743q0 265 101 391q34 42 77 70.5t83 43.5t99 23t101.5 9.5t114.5 1.5h336q131 0 221.5 -21.5t159.5 -83.5q45 -39 75.5 -94t43 -111.5t16.5 -94t4 -72.5v-795q0 -242 -129 -334q-80 -57 -178.5 -73.5t-253.5 -16.5h-324q-148 0 -255.5 22t-178.5 82 q-35 28 -59 70t-35 87t-15 81.5t-4 71.5zM312.5 1158.5q0.5 -28.5 0.5 -30.5v-655q0 -159 52 -213q30 -31 72.5 -46t74 -17t93.5 -2h20h381q90 0 148.5 10t107.5 43q24 17 39 45t20.5 68.5t6.5 64t1 66.5v694v19v24.5t-0.5 25.5t-2.5 30t-4.5 30t-7 32t-10.5 30t-14.5 30 t-19.5 27q-12 14 -26 24.5t-26 18t-32 12t-31 7.5t-36.5 4t-34.5 1h-39.5h-38.5h-322q-14 0 -70.5 1.5t-76 -0.5t-59 -8t-64.5 -21.5t-47 -40.5q-13 -16 -23 -37t-15.5 -47.5t-9 -47.5t-5 -52.5t-2 -46t0 -43zM604 2247h281l141 -394h-139z" />
<glyph unicode="&#xd3;" horiz-adv-x="1626" d="M104 414v743q0 265 101 391q34 42 77 70.5t83 43.5t99 23t101.5 9.5t114.5 1.5h336q131 0 221.5 -21.5t159.5 -83.5q45 -39 75.5 -94t43 -111.5t16.5 -94t4 -72.5v-795q0 -242 -129 -334q-80 -57 -178.5 -73.5t-253.5 -16.5h-324q-148 0 -255.5 22t-178.5 82 q-35 28 -59 70t-35 87t-15 81.5t-4 71.5zM312.5 1158.5q0.5 -28.5 0.5 -30.5v-655q0 -159 52 -213q30 -31 72.5 -46t74 -17t93.5 -2h20h381q90 0 148.5 10t107.5 43q24 17 39 45t20.5 68.5t6.5 64t1 66.5v694v19v24.5t-0.5 25.5t-2.5 30t-4.5 30t-7 32t-10.5 30t-14.5 30 t-19.5 27q-12 14 -26 24.5t-26 18t-32 12t-31 7.5t-36.5 4t-34.5 1h-39.5h-38.5h-322q-14 0 -70.5 1.5t-76 -0.5t-59 -8t-64.5 -21.5t-47 -40.5q-13 -16 -23 -37t-15.5 -47.5t-9 -47.5t-5 -52.5t-2 -46t0 -43zM631 1853l143 394h279l-281 -394h-141z" />
<glyph unicode="&#xd4;" horiz-adv-x="1626" d="M104 414v743q0 265 101 391q34 42 77 70.5t83 43.5t99 23t101.5 9.5t114.5 1.5h336q131 0 221.5 -21.5t159.5 -83.5q45 -39 75.5 -94t43 -111.5t16.5 -94t4 -72.5v-795q0 -242 -129 -334q-80 -57 -178.5 -73.5t-253.5 -16.5h-324q-148 0 -255.5 22t-178.5 82 q-35 28 -59 70t-35 87t-15 81.5t-4 71.5zM312.5 1158.5q0.5 -28.5 0.5 -30.5v-655q0 -159 52 -213q30 -31 72.5 -46t74 -17t93.5 -2h20h381q90 0 148.5 10t107.5 43q24 17 39 45t20.5 68.5t6.5 64t1 66.5v694v19v24.5t-0.5 25.5t-2.5 30t-4.5 30t-7 32t-10.5 30t-14.5 30 t-19.5 27q-12 14 -26 24.5t-26 18t-32 12t-31 7.5t-36.5 4t-34.5 1h-39.5h-38.5h-322q-14 0 -70.5 1.5t-76 -0.5t-59 -8t-64.5 -21.5t-47 -40.5q-13 -16 -23 -37t-15.5 -47.5t-9 -47.5t-5 -52.5t-2 -46t0 -43zM518 1847l141 275h383l134 -275h-195l-129 158l-137 -158h-197z " />
<glyph unicode="&#xd5;" horiz-adv-x="1634" d="M111 414v743q0 49 1.5 81t9.5 94t30.5 117t58.5 99q34 42 77 70.5t83 43.5t98.5 23t101 9.5t113.5 1.5h336q131 0 221.5 -21.5t161.5 -83.5q45 -39 75 -94t42 -112t16 -93.5t4 -72.5v-795q0 -242 -129 -334q-78 -57 -177 -73.5t-255 -16.5h-322q-148 0 -256 22t-180 82 q-110 92 -110 310zM317 473q0 -58 12.5 -120.5t41.5 -92.5q30 -31 72.5 -46t74 -17t93.5 -2h20h381q90 0 148.5 10t107.5 43q24 17 39 45t20.5 68.5t6.5 64t1 66.5v694q0 118 -22 179q-14 40 -37 69q-12 14 -26 24.5t-26 18t-32.5 12t-31.5 7.5t-36.5 4t-34.5 1h-39h-38 h-322q-19 0 -60.5 1t-62 1t-54 -3.5t-54.5 -10.5t-44.5 -21.5t-41.5 -35.5q-10 -12 -18.5 -28t-14 -35t-10 -36t-7 -40t-4 -38.5t-2 -38.5t-0.5 -34v-31v-23v-655zM492 1847v78q1 109 47 164.5t116 62.5q87 8 181 -49l104 -59q1 0 8 -4t10 -5t10.5 -4t12.5 -3.5t11.5 0 t12.5 3.5t11 9q28 32 26 80l-2 41h152v-78q0 -93 -60 -167.5t-145 -68.5q-9 1 -17 3t-17 4.5t-14.5 4.5t-15.5 6.5t-14 6t-15 7.5t-14 7.5t-16 9.5t-16 9l-105 59l-11 6q-12 5 -17 6.5t-15.5 3.5t-18.5 -1t-15 -11q-25 -36 -23 -80l2 -41h-153z" />
<glyph unicode="&#xd6;" horiz-adv-x="1640" d="M111 414v743q0 49 1.5 81t9.5 94t30.5 117t58.5 99q34 42 77 70.5t83 43.5t98.5 23t101 9.5t113.5 1.5h336q131 0 221.5 -21.5t161.5 -83.5q45 -39 75 -94t42 -112t16 -93.5t4 -72.5v-795q0 -242 -129 -334q-78 -57 -177 -73.5t-255 -16.5h-322q-148 0 -256 22t-180 82 q-110 92 -110 310zM317 473q0 -58 12.5 -120.5t41.5 -92.5q30 -31 72.5 -46t74 -17t93.5 -2h20h381q90 0 148.5 10t107.5 43q24 17 39 45t20.5 68.5t6.5 64t1 66.5v694q0 118 -22 179q-14 40 -37 69q-12 14 -26 24.5t-26 18t-32.5 12t-31.5 7.5t-36.5 4t-34.5 1h-39h-38 h-322q-19 0 -60.5 1t-62 1t-54 -3.5t-54.5 -10.5t-44.5 -21.5t-41.5 -35.5q-10 -12 -18.5 -28t-14 -35t-10 -36t-7 -40t-4 -38.5t-2 -38.5t-0.5 -34v-31v-23v-655zM506 1858v245h264v-245h-264zM889 1858v245h264v-245h-264z" />
<glyph unicode="&#xd8;" horiz-adv-x="1988" d="M70 74l204 207q-21 50 -26 77q-8 35 -8 150v641q0 256 110 385q83 98 190 128t273 30h285q66 0 93 -0.5t82 -4t85 -10.5t66 -22t61 -37q35 -32 59 -74l207 203l127 -127l-244 -244q16 -60 19 -78q10 -55 10 -141v-747q0 -86 -29.5 -170.5t-97.5 -143.5q-76 -64 -180 -88 t-248 -24h-338q-2 0 -30 -0.5t-40.5 0t-42 2t-49.5 5.5t-46.5 10t-49.5 16t-43 24q-50 33 -94 88l-178 -182zM436 502q0 -19 2 -31q0 -6 4 -22l971 970q-2 2 -7.5 11t-8 11.5t-7.5 9.5t-9 10.5t-9.5 8t-11.5 7.5q-68 39 -293 39h-248q-114 0 -187.5 -17t-125.5 -74 q-13 -14 -23 -31t-17 -37.5t-12.5 -38.5t-8.5 -42.5t-5.5 -40.5t-3 -41.5t-0.5 -35.5v-32.5v-23.5v-600zM502 256q11 -22 47 -51q39 -35 88 -46.5t123 -11.5h381q90 0 143.5 11.5t106.5 54.5q84 69 84 227v785z" />
<glyph unicode="&#xd9;" horiz-adv-x="1525" d="M104 442v1254h211v-1223q0 -36 0.5 -55.5t4.5 -52t11 -52t22 -40.5t36 -33q83 -45 324 -45h143q241 0 311 63q58 53 58 213v1225h209v-1247q0 -111 -17.5 -187.5t-68.5 -134.5q-20 -23 -40.5 -41.5t-46.5 -31.5t-43.5 -22.5t-50.5 -15.5t-47.5 -9.5t-54.5 -5t-52 -2 t-59.5 0t-58.5 0.5h-215q-13 0 -73 -2.5t-96.5 -0.5t-92.5 8.5t-102.5 26.5t-84.5 52q-80 70 -103.5 153.5t-23.5 204.5zM555 2247h281l141 -394h-139z" />
<glyph unicode="&#xda;" horiz-adv-x="1525" d="M104 442v1254h211v-1223q0 -36 0.5 -55.5t4.5 -52t11 -52t22 -40.5t36 -33q83 -45 324 -45h143q241 0 311 63q58 53 58 213v1225h209v-1247q0 -111 -17.5 -187.5t-68.5 -134.5q-20 -23 -40.5 -41.5t-46.5 -31.5t-43.5 -22.5t-50.5 -15.5t-47.5 -9.5t-54.5 -5t-52 -2 t-59.5 0t-58.5 0.5h-215q-13 0 -73 -2.5t-96.5 -0.5t-92.5 8.5t-102.5 26.5t-84.5 52q-80 70 -103.5 153.5t-23.5 204.5zM567 1853l144 394h278l-280 -394h-142z" />
<glyph unicode="&#xdb;" horiz-adv-x="1525" d="M104 442v1254h211v-1223q0 -36 0.5 -55.5t4.5 -52t11 -52t22 -40.5t36 -33q83 -45 324 -45h143q241 0 311 63q58 53 58 213v1225h209v-1247q0 -111 -17.5 -187.5t-68.5 -134.5q-20 -23 -40.5 -41.5t-46.5 -31.5t-43.5 -22.5t-50.5 -15.5t-47.5 -9.5t-54.5 -5t-52 -2 t-59.5 0t-58.5 0.5h-215q-13 0 -73 -2.5t-96.5 -0.5t-92.5 8.5t-102.5 26.5t-84.5 52q-80 70 -103.5 153.5t-23.5 204.5zM479 1847l142 275h383l133 -275h-195l-129 158l-137 -158h-197z" />
<glyph unicode="&#xdc;" horiz-adv-x="1546" d="M121 442v1254h209v-1223q0 -36 0.5 -55.5t4.5 -52t11.5 -52t22.5 -40.5t37 -33q83 -45 323 -45h143q242 0 312 63q57 52 57 213v1225h209v-1247q0 -111 -17.5 -187.5t-68.5 -134.5q-20 -23 -40.5 -41.5t-46.5 -31.5t-43.5 -22.5t-50.5 -15.5t-47.5 -9.5t-54.5 -5t-52 -2 t-59.5 0t-58.5 0.5h-215q-13 0 -73 -2.5t-96.5 -0.5t-92 8.5t-102 26.5t-84.5 52q-80 70 -103.5 153.5t-23.5 204.5zM475 1858v245h264v-245h-264zM858 1858v245h264v-245h-264z" />
<glyph unicode="&#xdf;" horiz-adv-x="1501" d="M113 0v1313q0 189 112 305q36 37 102 57.5t142 20.5h518q158 0 244 -78q112 -104 112 -313v-93q0 -66 -18 -127.5t-47 -93.5q-53 -58 -156 -96q10 -4 43 -13.5t53.5 -17t47.5 -23t43 -34.5q92 -110 88 -295v-100q0 -48 -0.5 -70t-6.5 -65t-17 -69.5t-34 -58.5t-57 -57 q-23 -17 -42.5 -30t-41 -22.5t-34 -16.5t-35 -11.5t-31 -7t-35 -3.5t-33 -1h-39.5h-41h-536v178h544q114 0 177 43q73 51 73 217v82q0 124 -63 199q-29 38 -82 55t-105 17h-239v174h129q9 0 40.5 -0.5t39 0t31 3t36.5 8t34.5 15.5t45.5 25q33 20 49.5 73t16.5 117v107 q0 70 -43 151q-12 22 -29 35.5t-44.5 18.5t-41 5.5t-47.5 0.5h-451q-86 0 -127 -47q-23 -25 -34.5 -53.5t-13 -47t-1.5 -53.5v-1323h-196z" />
<glyph unicode="&#xe0;" d="M53 0l600 1696h334l563 -1696h-231l-111 354h-800l-134 -354h-221zM465 543h678l-314 1032zM612 2245h281l141 -394h-139z" />
<glyph unicode="&#xe1;" d="M53 0l600 1696h334l563 -1696h-231l-111 354h-800l-134 -354h-221zM465 543h678l-314 1032zM633 1851l143 394h279l-281 -394h-141z" />
<glyph unicode="&#xe2;" d="M53 0l600 1696h334l563 -1696h-231l-111 354h-800l-134 -354h-221zM465 543h678l-314 1032zM504 1853l141 275h383l133 -275h-194l-129 158l-138 -158h-196z" />
<glyph unicode="&#xe3;" d="M53 0l600 1696h334l563 -1696h-231l-111 354h-800l-134 -354h-221zM465 543h678l-314 1032zM477 1847v76q1 108 48 165t118 64q78 7 180 -49l103 -59q51 -32 75 -6q29 33 27 80l-2 43h154v-78q0 -94 -60.5 -168.5t-146.5 -67.5q-13 1 -26.5 4.5t-22 6.5t-23 10t-20 10 t-24 13.5t-23.5 13.5l-103 59q-1 0 -7.5 3t-9.5 4.5t-9.5 4t-10.5 3t-10.5 1t-11 -1t-10 -4.5t-9.5 -8q-24 -27 -22 -78l2 -41h-156z" />
<glyph unicode="&#xe4;" d="M53 0l600 1696h334l563 -1696h-231l-111 354h-800l-134 -354h-221zM465 543h678l-314 1032zM500 1858v245h266v-245h-266zM883 1858v245h264v-245h-264z" />
<glyph unicode="&#xe5;" d="M53 0l600 1696h334l563 -1696h-231l-111 354h-800l-134 -354h-221zM465 543h678l-314 1032zM553 2178q4 46 25.5 88.5t53.5 75t81.5 52.5t109.5 21t111 -17.5t84 -50t56.5 -73t29 -88t1.5 -92.5t-26 -88.5t-54 -75t-81.5 -52t-109.5 -20.5t-110.5 17.5t-83.5 50t-56.5 73 t-29 87.5t-1.5 92zM693.5 2162.5q-6.5 -29.5 1 -58t23 -52.5t45 -38.5t66.5 -14.5t66.5 15.5t44 40t21.5 53.5t-0.5 58t-23 53t-45.5 38.5t-67 13.5q-37 0 -66.5 -15.5t-44 -39.5t-21 -53.5z" />
<glyph unicode="&#xe6;" horiz-adv-x="2603" d="M90 2l1229 1696h1157v-178h-895v-559h868v-181h-868v-604h916v-174h-1100v365h-830l-266 -365h-211zM670 528h723v990z" />
<glyph unicode="&#xe7;" horiz-adv-x="1570" d="M104 543v696q0 111 32.5 195.5t109.5 158.5q111 111 481 111h84q2 0 52 -0.5t68.5 -1t70.5 -3.5t80.5 -7t75 -12.5t77 -19.5t63.5 -27.5t56 -37.5q39 -35 63.5 -84t31 -92t9.5 -86.5t0 -68.5v-111h-215v154q0 97 -55 145q-19 17 -47.5 28.5t-51.5 17.5t-64 9.5t-56.5 4 t-58.5 0.5l-44 -1h-178q-214 0 -266 -34q-57 -37 -78.5 -95.5t-21.5 -142.5v-700q0 -225 51 -283q21 -26 68.5 -42t100 -20.5t108 -6.5t91.5 1h88q172 -4 249 11q85 17 118 55q24 29 35.5 63.5t13.5 59t2 74.5v133h221v-195q0 -77 -20 -148.5t-55 -113.5 q-63 -76 -201.5 -108t-271.5 -25h-43l-91 -449l-194 168l151 281h-112q-42 0 -84 2.5t-117.5 12.5t-139 37.5t-97.5 68.5q-52 62 -70.5 169.5t-18.5 258.5z" />
<glyph unicode="&#xe8;" horiz-adv-x="1288" d="M104 0v1696h1086v-195h-848v-526h797v-197h-797v-583h848v-195h-1086zM471 2245h281l141 -394h-139z" />
<glyph unicode="&#xe9;" horiz-adv-x="1288" d="M104 0v1696h1086v-195h-848v-526h797v-197h-797v-583h848v-195h-1086zM504 1851l143 394h279l-281 -394h-141z" />
<glyph unicode="&#xea;" horiz-adv-x="1288" d="M104 0v1696h1086v-195h-848v-526h797v-197h-797v-583h848v-195h-1086zM373 1853l141 275h383l133 -275h-194l-129 158l-138 -158h-196z" />
<glyph unicode="&#xeb;" horiz-adv-x="1288" d="M104 0v1696h1086v-195h-848v-526h797v-197h-797v-583h848v-195h-1086zM383 1858v245h266v-245h-266zM766 1858v245h264v-245h-264z" />
<glyph unicode="&#xec;" horiz-adv-x="526" d="M41 2247h278l142 -394h-137zM162 0v1696h221v-1696h-221z" />
<glyph unicode="&#xed;" horiz-adv-x="526" d="M90 1855l141 394h279l-281 -394h-139zM143 0v1696h222v-1696h-222z" />
<glyph unicode="&#xee;" horiz-adv-x="526" d="M-59 1849l141 277h383l131 -277h-195l-127 158l-139 -158h-194zM162 0v1696h221v-1696h-221z" />
<glyph unicode="&#xef;" horiz-adv-x="524" d="M-39 1849v248h264v-248h-264zM162 0v1696h221v-1696h-221zM344 1849v248h264v-248h-264z" />
<glyph unicode="&#xf1;" horiz-adv-x="1644" d="M106 0v1696h355l878 -1532v1532h205v-1696h-358l-869 1495v-1495h-211zM487 1847v78q1 108 47.5 164t116.5 63q86 8 183 -49l102 -59q1 0 7 -3.5t8.5 -4.5t9.5 -3.5t11 -3.5t10 -1.5t10.5 0.5t10 4t9.5 8q28 28 26 80l-2 41h152v-78q0 -94 -59.5 -168t-145.5 -68 q-9 1 -17 3t-17 4.5t-14.5 4.5t-15.5 6.5t-14 6t-15 7.5t-14 7.5t-16 9.5t-16 9l-105 59l-7 4q-8 4 -11 5t-10.5 4t-12.5 3h-11.5t-12 -3t-10.5 -9q-25 -31 -25 -80l2 -41h-154z" />
<glyph unicode="&#xf2;" horiz-adv-x="1642" d="M111 414v743q0 49 1.5 81t9.5 94t30.5 117t58.5 99q34 42 77 70.5t83 43.5t98.5 23t101 9.5t113.5 1.5h336q131 0 221.5 -21.5t161.5 -83.5q45 -39 75 -94t42 -112t16 -93.5t4 -72.5v-795q0 -242 -129 -334q-78 -57 -177 -73.5t-255 -16.5h-322q-148 0 -256 22t-180 82 q-110 92 -110 310zM317 473q0 -58 12.5 -120.5t41.5 -92.5q30 -31 72.5 -46t74 -17t93.5 -2h20h381q90 0 148.5 10t107.5 43q24 17 39 45t20.5 68.5t6.5 64t1 66.5v694q0 118 -22 179q-14 40 -37 69q-12 14 -26 24.5t-26 18t-32.5 12t-31.5 7.5t-36.5 4t-34.5 1h-39h-38 h-322q-19 0 -60.5 1t-62 1t-54 -3.5t-54.5 -10.5t-44.5 -21.5t-41.5 -35.5q-10 -12 -18.5 -28t-14 -35t-10 -36t-7 -40t-4 -38.5t-2 -38.5t-0.5 -34v-31v-23v-655zM610 2245h281l139 -394h-137z" />
<glyph unicode="&#xf3;" horiz-adv-x="1642" d="M111 414v743q0 49 1.5 81t9.5 94t30.5 117t58.5 99q34 42 77 70.5t83 43.5t98.5 23t101 9.5t113.5 1.5h336q131 0 221.5 -21.5t161.5 -83.5q45 -39 75 -94t42 -112t16 -93.5t4 -72.5v-795q0 -242 -129 -334q-78 -57 -177 -73.5t-255 -16.5h-322q-148 0 -256 22t-180 82 q-110 92 -110 310zM317 473q0 -58 12.5 -120.5t41.5 -92.5q30 -31 72.5 -46t74 -17t93.5 -2h20h381q90 0 148.5 10t107.5 43q24 17 39 45t20.5 68.5t6.5 64t1 66.5v694q0 118 -22 179q-14 40 -37 69q-12 14 -26 24.5t-26 18t-32.5 12t-31.5 7.5t-36.5 4t-34.5 1h-39h-38 h-322q-19 0 -60.5 1t-62 1t-54 -3.5t-54.5 -10.5t-44.5 -21.5t-41.5 -35.5q-10 -12 -18.5 -28t-14 -35t-10 -36t-7 -40t-4 -38.5t-2 -38.5t-0.5 -34v-31v-23v-655zM637 1851l141 394h279l-281 -394h-139z" />
<glyph unicode="&#xf4;" horiz-adv-x="1642" d="M111 414v743q0 49 1.5 81t9.5 94t30.5 117t58.5 99q34 42 77 70.5t83 43.5t98.5 23t101 9.5t113.5 1.5h336q131 0 221.5 -21.5t161.5 -83.5q45 -39 75 -94t42 -112t16 -93.5t4 -72.5v-795q0 -242 -129 -334q-78 -57 -177 -73.5t-255 -16.5h-322q-148 0 -256 22t-180 82 q-110 92 -110 310zM317 473q0 -58 12.5 -120.5t41.5 -92.5q30 -31 72.5 -46t74 -17t93.5 -2h20h381q90 0 148.5 10t107.5 43q24 17 39 45t20.5 68.5t6.5 64t1 66.5v694q0 118 -22 179q-14 40 -37 69q-12 14 -26 24.5t-26 18t-32.5 12t-31.5 7.5t-36.5 4t-34.5 1h-39h-38 h-322q-19 0 -60.5 1t-62 1t-54 -3.5t-54.5 -10.5t-44.5 -21.5t-41.5 -35.5q-10 -12 -18.5 -28t-14 -35t-10 -36t-7 -40t-4 -38.5t-2 -38.5t-0.5 -34v-31v-23v-655zM496 1853l141 275h381l133 -275h-195l-129 158l-137 -158h-194z" />
<glyph unicode="&#xf5;" horiz-adv-x="1642" d="M111 414v743q0 49 1.5 81t9.5 94t30.5 117t58.5 99q34 42 77 70.5t83 43.5t98.5 23t101 9.5t113.5 1.5h336q131 0 221.5 -21.5t161.5 -83.5q45 -39 75 -94t42 -112t16 -93.5t4 -72.5v-795q0 -242 -129 -334q-78 -57 -177 -73.5t-255 -16.5h-322q-148 0 -256 22t-180 82 q-110 92 -110 310zM317 473q0 -58 12.5 -120.5t41.5 -92.5q30 -31 72.5 -46t74 -17t93.5 -2h20h381q90 0 148.5 10t107.5 43q24 17 39 45t20.5 68.5t6.5 64t1 66.5v694q0 118 -22 179q-14 40 -37 69q-12 14 -26 24.5t-26 18t-32.5 12t-31.5 7.5t-36.5 4t-34.5 1h-39h-38 h-322q-19 0 -60.5 1t-62 1t-54 -3.5t-54.5 -10.5t-44.5 -21.5t-41.5 -35.5q-10 -12 -18.5 -28t-14 -35t-10 -36t-7 -40t-4 -38.5t-2 -38.5t-0.5 -34v-31v-23v-655zM494 1835v78q1 109 47 164.5t116 62.5q83 8 181 -49l104 -59q1 0 8 -4t10 -5t10.5 -4t12.5 -3.5t11.5 0 t12.5 3.5t11 9q26 29 26 79l-2 41h152v-77q0 -93 -60 -167.5t-145 -68.5q-12 2 -22.5 4t-22 6t-17.5 6t-19.5 9t-17.5 9t-21 11.5t-21 11.5l-103 60l-11 6q-12 5 -17 6.5t-15.5 3.5t-18.5 -1t-15 -11q-25 -32 -23 -80l2 -41h-153z" />
<glyph unicode="&#xf6;" horiz-adv-x="1642" d="M111 414v743q0 49 1.5 81t9.5 94t30.5 117t58.5 99q34 42 77 70.5t83 43.5t98.5 23t101 9.5t113.5 1.5h336q131 0 221.5 -21.5t161.5 -83.5q45 -39 75 -94t42 -112t16 -93.5t4 -72.5v-795q0 -242 -129 -334q-78 -57 -177 -73.5t-255 -16.5h-322q-148 0 -256 22t-180 82 q-110 92 -110 310zM317 473q0 -58 12.5 -120.5t41.5 -92.5q30 -31 72.5 -46t74 -17t93.5 -2h20h381q90 0 148.5 10t107.5 43q24 17 39 45t20.5 68.5t6.5 64t1 66.5v694q0 118 -22 179q-14 40 -37 69q-12 14 -26 24.5t-26 18t-32.5 12t-31.5 7.5t-36.5 4t-34.5 1h-39h-38 h-322q-19 0 -60.5 1t-62 1t-54 -3.5t-54.5 -10.5t-44.5 -21.5t-41.5 -35.5q-10 -12 -18.5 -28t-14 -35t-10 -36t-7 -40t-4 -38.5t-2 -38.5t-0.5 -34v-31v-23v-655zM502 1858v245h264v-245h-264zM885 1858v245h264v-245h-264z" />
<glyph unicode="&#xf7;" horiz-adv-x="1652" d="M104 557v158h1446v-158h-1446zM659 260q2 63 46.5 108.5t107.5 45.5q64 0 110 -45.5t46 -108.5q0 -66 -47 -113.5t-113 -44.5q-63 0 -107.5 47.5t-42.5 110.5zM662 1014q2 63 46 107t107 44q64 0 110 -45t46 -108q0 -66 -47 -112.5t-113 -45.5q-62 0 -106.5 48t-42.5 112 z" />
<glyph unicode="&#xf8;" horiz-adv-x="2019" d="M70 74l204 207q-21 50 -26 77q-8 35 -8 150v641q0 256 110 385q83 98 190 128t273 30h285q66 0 93 -0.5t82 -4t85 -10.5t66 -22t61 -37q35 -32 59 -74l207 203l127 -127l-244 -244q16 -60 19 -78q10 -55 10 -141v-747q0 -86 -29.5 -170.5t-97.5 -143.5q-76 -64 -180 -88 t-248 -24h-338q-2 0 -30 -0.5t-40.5 0t-42 2t-49.5 5.5t-46.5 10t-49.5 16t-43 24q-50 33 -94 88l-178 -182zM436 502q0 -19 2 -31q0 -6 4 -22l971 970q-2 2 -7.5 11t-8 11.5t-7.5 9.5t-9 10.5t-9.5 8t-11.5 7.5q-68 39 -293 39h-248q-114 0 -187.5 -17t-125.5 -74 q-13 -14 -23 -31t-17 -37.5t-12.5 -38.5t-8.5 -42.5t-5.5 -40.5t-3 -41.5t-0.5 -35.5v-32.5v-23.5v-600zM502 256q11 -22 47 -51q39 -35 88 -46.5t123 -11.5h381q90 0 143.5 11.5t106.5 54.5q84 69 84 227v785z" />
<glyph unicode="&#xf9;" horiz-adv-x="1538" d="M104 442v1254h211v-1223q0 -36 0.5 -55.5t4.5 -52t11 -52t22 -40.5t36 -33q83 -45 324 -45h143q241 0 311 63q58 53 58 213v1225h209v-1247q0 -111 -17.5 -187.5t-68.5 -134.5q-20 -23 -40.5 -41.5t-46.5 -31.5t-43.5 -22.5t-50.5 -15.5t-47.5 -9.5t-54.5 -5t-52 -2 t-59.5 0t-58.5 0.5h-215q-13 0 -73 -2.5t-96.5 -0.5t-92.5 8.5t-102.5 26.5t-84.5 52q-80 70 -103.5 153.5t-23.5 204.5zM588 2245h280l142 -394h-140z" />
<glyph unicode="&#xfa;" horiz-adv-x="1538" d="M104 442v1254h211v-1223q0 -36 0.5 -55.5t4.5 -52t11 -52t22 -40.5t36 -33q83 -45 324 -45h143q241 0 311 63q58 53 58 213v1225h209v-1247q0 -111 -17.5 -187.5t-68.5 -134.5q-20 -23 -40.5 -41.5t-46.5 -31.5t-43.5 -22.5t-50.5 -15.5t-47.5 -9.5t-54.5 -5t-52 -2 t-59.5 0t-58.5 0.5h-215q-13 0 -73 -2.5t-96.5 -0.5t-92.5 8.5t-102.5 26.5t-84.5 52q-80 70 -103.5 153.5t-23.5 204.5zM590 1851l143 394h279l-281 -394h-141z" />
<glyph unicode="&#xfb;" horiz-adv-x="1552" d="M104 442v1254h211v-1223q0 -36 0.5 -55.5t4.5 -52t11 -52t22 -40.5t36 -33q83 -45 324 -45h143q241 0 311 63q58 53 58 213v1225h209v-1247q0 -111 -17.5 -187.5t-68.5 -134.5q-20 -23 -40.5 -41.5t-46.5 -31.5t-43.5 -22.5t-50.5 -15.5t-47.5 -9.5t-54.5 -5t-52 -2 t-59.5 0t-58.5 0.5h-215q-13 0 -73 -2.5t-96.5 -0.5t-92.5 8.5t-102.5 26.5t-84.5 52q-80 70 -103.5 153.5t-23.5 204.5zM449 1853l141 275h383l133 -275h-195l-129 158l-137 -158h-196z" />
<glyph unicode="&#xfc;" horiz-adv-x="1540" d="M104 442v1254h211v-1223q0 -36 0.5 -55.5t4.5 -52t11 -52t22 -40.5t36 -33q83 -45 324 -45h143q241 0 311 63q58 53 58 213v1225h209v-1247q0 -111 -17.5 -187.5t-68.5 -134.5q-20 -23 -40.5 -41.5t-46.5 -31.5t-43.5 -22.5t-50.5 -15.5t-47.5 -9.5t-54.5 -5t-52 -2 t-59.5 0t-58.5 0.5h-215q-13 0 -73 -2.5t-96.5 -0.5t-92.5 8.5t-102.5 26.5t-84.5 52q-80 70 -103.5 153.5t-23.5 204.5zM467 1858v245h266v-245h-266zM850 1858v245h264v-245h-264z" />
<glyph unicode="&#xff;" horiz-adv-x="1519" d="M53 1696h238l479 -778l469 778h231l-600 -989v-707h-211v700zM463 1860v245h266v-245h-266zM846 1860v245h264v-245h-264z" />
<glyph unicode="&#x152;" horiz-adv-x="2379" d="M104 516v641q0 92 24 200t89 185q44 52 95 84t114 46.5t117 19t137 4.5h1577v-178h-895v-560h868v-180h-868v-604h917v-174l-1679 -4q-223 0 -379 156q-57 56 -87 170.5t-30 193.5zM301 512q0 -55 20 -139.5t48 -112.5q56 -56 115.5 -80t140.5 -24h532v1368h-471 q-59 0 -93 -2t-79 -9.5t-79 -26.5t-62 -50q-72 -78 -72 -324v-600z" />
<glyph unicode="&#x153;" horiz-adv-x="2363" d="M92 516v641q0 92 23.5 200t87.5 185q45 52 96.5 84t114.5 46.5t116.5 19t135.5 4.5h1579v-178h-895v-560h868v-180h-868v-604h915v-174l-1677 -4q-223 0 -379 156q-57 56 -87 170.5t-30 193.5zM289 512q0 -55 19.5 -139.5t47.5 -112.5q56 -56 116 -80t140 -24h533v1368 h-471q-59 0 -93 -2t-79.5 -9.5t-80 -26.5t-63.5 -50q-69 -77 -69 -324v-600z" />
<glyph unicode="&#x178;" horiz-adv-x="1787" d="M53 1696h238l479 -778l469 778h231l-600 -989v-707h-211v700zM483 1849v246h267v-246h-267zM866 1849v246h264v-246h-264z" />
<glyph unicode="&#x2000;" horiz-adv-x="1207" />
<glyph unicode="&#x2001;" horiz-adv-x="2415" />
<glyph unicode="&#x2002;" horiz-adv-x="1207" />
<glyph unicode="&#x2003;" horiz-adv-x="2415" />
<glyph unicode="&#x2004;" horiz-adv-x="805" />
<glyph unicode="&#x2005;" horiz-adv-x="603" />
<glyph unicode="&#x2006;" horiz-adv-x="402" />
<glyph unicode="&#x2007;" horiz-adv-x="402" />
<glyph unicode="&#x2008;" horiz-adv-x="301" />
<glyph unicode="&#x2009;" horiz-adv-x="483" />
<glyph unicode="&#x200a;" horiz-adv-x="134" />
<glyph unicode="&#x2010;" horiz-adv-x="937" d="M104 618v205h730v-205h-730z" />
<glyph unicode="&#x2011;" horiz-adv-x="937" d="M104 618v205h730v-205h-730z" />
<glyph unicode="&#x2012;" horiz-adv-x="937" d="M104 618v205h730v-205h-730z" />
<glyph unicode="&#x2013;" horiz-adv-x="1234" d="M104 618v205h1024v-205h-1024z" />
<glyph unicode="&#x2014;" horiz-adv-x="2250" d="M104 618v205h2048v-205h-2048z" />
<glyph unicode="&#x2018;" horiz-adv-x="507" d="M119 1171v310q0 45 18 87.5t43 69.5q23 26 69 43t97 17h64v-144h-17q-40 3 -63 -20q-15 -21 -15 -64v-32h74v-267h-270z" />
<glyph unicode="&#x2019;" horiz-adv-x="503" d="M104 1169v142h17q43 0 63 22q17 21 17 64v33h-76v266h270v-307q0 -47 -18 -91t-43 -71q-24 -25 -70 -41.5t-96 -16.5h-64z" />
<glyph unicode="&#x201a;" horiz-adv-x="503" d="M113 -119h16q43 0 61 23q17 19 17 61v35h-74v266h268v-307q0 -47 -17 -91.5t-42 -70.5q-23 -25 -69.5 -41t-96.5 -16h-63v141z" />
<glyph unicode="&#x201c;" horiz-adv-x="882" d="M113 1171v310q0 45 18 87.5t43 69.5q22 26 68.5 43t97.5 17h61v-144h-16q-38 3 -61 -20q-17 -21 -17 -64v-32h76v-267h-270zM489 1171v310q0 44 18 87t44 70q23 26 69 43t97 17h61v-144h-14q-38 3 -64 -20q-16 -20 -16 -64v-32h78v-267h-273z" />
<glyph unicode="&#x201d;" horiz-adv-x="876" d="M104 1169v142h17q43 0 63 22q17 21 17 64v33h-76v266h270v-307q0 -47 -18 -91t-43 -71q-24 -25 -70 -41.5t-96 -16.5h-64zM483 1169v142h15q43 0 63 22q17 21 17 64v33h-76v266h270v-307q0 -46 -17.5 -90.5t-41.5 -71.5q-25 -25 -71 -41.5t-97 -16.5h-62z" />
<glyph unicode="&#x201e;" horiz-adv-x="929" d="M113 -119h16q43 0 61 23q17 19 17 61v35h-74v266h268v-307q0 -47 -17 -91.5t-42 -70.5q-23 -25 -69.5 -41t-96.5 -16h-63v141zM520 -119h17q41 0 61 23q16 18 16 61v35h-73v266h268v-307q0 -46 -17.5 -90.5t-41.5 -71.5q-24 -25 -70 -41t-98 -16h-62v141z" />
<glyph unicode="&#x2022;" horiz-adv-x="665" d="M117 750q6 60 35.5 105t71 65t90 26t94.5 -10.5t82.5 -45.5t55.5 -79t13 -111q-5 -47 -24.5 -85t-48 -61t-63.5 -37t-72 -14t-73 8t-67.5 29.5t-54 50t-33.5 70t-6 89.5z" />
<glyph unicode="&#x2026;" horiz-adv-x="1550" d="M104 0v276h273v-276h-273zM643 0v276h270v-276h-270zM1180 0v276h272v-276h-272z" />
<glyph unicode="&#x202f;" horiz-adv-x="483" />
<glyph unicode="&#x205f;" horiz-adv-x="603" />
<glyph unicode="&#x2122;" horiz-adv-x="1679" d="M104 1624v72h617v-72h-268v-782h-82v782h-267zM778 846v850h135l269 -748l274 748h123v-850h-84v753l-283 -751h-73l-273 756v-758h-88z" />
<glyph unicode="&#x25fc;" horiz-adv-x="1699" d="M0 0v1700h1700v-1700h-1700z" />
</font>
</defs>
</svg>
